<?xml version="1.0" encoding="UTF-8"?>
<svg width="332px" height="186px" viewBox="0 0 332 186" version="1.1" xmlns="http://www.w3.org/2000/svg" xmlns:xlink="http://www.w3.org/1999/xlink">
    <!-- Generator: Sketch 55 (78076) - https://sketchapp.com -->
    <title>illustration-vs</title>
    <desc>Created with Sketch.</desc>
    <defs>
        <polygon id="path-1" points="0.203011765 0.171428571 127.156424 0.171428571 127.156424 79.1064762 0.203011765 79.1064762"></polygon>
    </defs>
    <g id="Page-1" stroke="none" stroke-width="1" fill="none" fill-rule="evenodd">
        <g id="game" transform="translate(-554.000000, -358.000000)">
            <g id="illustration-vs" transform="translate(554.000000, 358.000000)">
                <path d="M142.001089,80 C141.033043,80.6216077 140.064062,81.2393544 139.097886,81.8619273 C117.96175,95.4002335 96.8910852,109.04761 76,123 C97.6430745,110.327505 119.107505,97.3499966 140.508334,84.2624526 C141.339825,83.7576377 142.169445,83.2470314 143,82.740286 C142.648323,81.8339357 142.311612,80.921794 142.001089,80" id="Fill-1" fill="#FFFFFF"></path>
                <polygon id="Fill-3" fill="#000800" points="93 167 129.164294 138.267547 112.287748 130.931702 233.438971 51.4573714 220.780631 43.5105993 269 16 235.849242 41.0650029 253.931389 50.8464444 131.575496 129.708903 149.054377 136.433822"></polygon>
                <g id="Group-7" transform="translate(148.000000, 0.000000)">
                    <mask id="mask-2" fill="white">
                        <use xlink:href="#path-1"></use>
                    </mask>
                    <g id="Clip-6"></g>
                    <path d="M70.7865412,33.368381 C61.4208941,38.9502857 52.1117176,44.6274286 42.7761882,50.2588571 L14.8552471,67.2969524 L0.203011765,76.3407619 C0.606776471,77.2607619 1.00583529,78.183619 1.40301176,79.1064762 L16.4345412,69.9321905 L44.2679529,52.748381 C53.5178353,46.9731429 62.7950118,41.2426667 72.0147765,35.4179048 C90.4834824,23.8169524 108.8976,12.123619 127.156424,0.171238095 C108.243482,11.0331429 89.4877176,22.1550476 70.7865412,33.368381" id="Fill-5" fill="#000800" mask="url(#mask-2)"></path>
                </g>
                <path d="M213,94.3101521 C213.488082,94.8719148 213.972402,95.4355014 214.456722,96 C231.382537,85.7916042 248.258509,75.5020445 265,65 C247.559771,74.5982996 230.254964,84.413644 213,94.3101521" id="Fill-8" fill="#000800"></path>
                <path d="M219.226008,93 C218.474669,93.4481731 217.722387,93.8936301 216.971992,94.3427086 C200.568078,104.102924 184.214191,113.941003 168,124 C184.797517,114.864511 201.457225,105.50901 218.065964,96.0747393 C218.711586,95.709863 219.355321,95.3422705 220,94.9773942 C219.727215,94.3236952 219.466701,93.6654692 219.226008,93" id="Fill-10" fill="#000800"></path>
                <path d="M303.638214,47.7869405 L275.342135,64.6839221 L218.854729,98.6486383 L214.01238,101.58844 C214.005714,102.05896 214.002857,102.52948 214,103 L219.493709,99.6978221 L275.831608,65.4883595 L303.94961,48.2992003 L332,31 L303.638214,47.7869405 Z" id="Fill-12" fill="#FFFFFF"></path>
                <path d="M216.600211,121.642425 L196,134.26554 C196.138917,134.510047 196.276914,134.754553 196.416751,135 L216.901045,122.149306 L244,105 L216.600211,121.642425 Z" id="Fill-14" fill="#000800"></path>
                <path d="M176.385138,137 L143.375323,157.313304 L102,183 L143.836939,158.076892 L177,138.144438 C176.795986,137.762644 176.590092,137.380851 176.385138,137" id="Fill-16" fill="#000800"></path>
                <path d="M224.977722,88.7196056 L224.865761,87.8992813 C224.764063,87.1508654 224.327414,86.491389 223.681771,86.1129234 C219.150139,83.4551483 214.116548,82.1068645 208.722815,82.1068645 C205.092471,82.1068645 201.240071,82.720925 197.21693,83.9357997 C203.14901,74.1808476 210.428358,66.2907849 218.910356,60.4378136 C219.669826,59.9136387 220.070088,58.9977518 219.943198,58.0761879 C219.901213,57.7601691 219.823773,57.4621274 219.715544,57.1877398 L221.141183,56.2046753 C221.898788,55.6814465 222.299982,54.7665058 222.174959,53.8449419 L222.063931,53.0236715 C221.955702,52.2298398 221.470536,51.5391399 220.766113,51.1748668 C220.494607,51.0348345 220.204441,50.9496797 219.908677,50.9194024 C219.82284,50.288311 219.498152,49.7149355 219.001791,49.3222774 C217.890575,48.4432909 216.51905,47.9976476 214.922669,47.9976476 C213.760138,47.9976476 212.457655,48.2427041 211.004025,48.737548 C210.753045,48.3108279 210.375176,47.9645319 209.912403,47.7563758 C209.598911,47.6144511 209.263961,47.5453812 208.931809,47.5453812 C208.454108,47.5453812 207.979205,47.6891981 207.572413,47.9702089 C196.953821,55.29825 194.563448,55.8612177 194.239694,55.8981181 L194.228498,55.8981181 C193.388788,55.8981181 192.607859,56.3409229 192.168411,57.067577 L180.839798,75.8186577 C180.070064,75.8640735 179.352579,76.2822781 178.929926,76.9691932 L175.102717,83.2034687 C175.078459,83.2432076 174.950636,83.2829465 174.767766,83.3236315 L180.358365,63.316991 C184.265812,51.891113 187.480966,44.3918161 189.915191,41.0272565 C190.320117,40.4671273 190.472198,39.7584504 190.331313,39.0781584 L189.847081,36.7193712 C189.693134,35.9671707 189.198638,35.3341869 188.519407,35.0068141 L188.507278,34.9500443 C188.310413,33.99158 187.568669,33.2441103 186.622597,33.0492005 C186.462119,33.0160848 186.301641,33 186.142096,33 C185.359301,33 184.611959,33.3869811 184.155717,34.0559192 C183.670552,34.7664884 183.225506,35.4439419 182.821512,36.090172 L179.271408,35.4032569 C179.122126,35.374872 178.969112,35.3606795 178.818897,35.3606795 C178.338397,35.3606795 177.863495,35.5063888 177.459501,35.7855072 L175.750226,36.9653739 C175.491782,37.1441989 175.271592,37.3703321 175.098985,37.6333657 C174.863866,37.5595649 174.62315,37.5236107 174.384299,37.5236107 C173.775043,37.5236107 173.177916,37.7582594 172.722607,38.1944411 C170.940557,39.906052 169.588625,42.5259805 168.588438,46.2046666 C168.483008,46.59354 168.475544,46.990929 168.55485,47.3665561 C168.07155,47.5841739 167.65916,47.9607472 167.39885,48.455591 C164.114653,54.7050051 162.151599,59.7603601 161.399593,63.9111821 C161.343612,64.2224701 161.347344,64.5432197 161.410789,64.8535616 L161.573133,65.639824 C161.62818,65.9094807 161.725213,66.1602142 161.858634,66.3872936 C161.683228,66.4544713 161.51342,66.5434107 161.355741,66.6522196 L160.499238,67.242626 C159.926369,67.6381226 159.5485,68.2635371 159.460797,68.9608601 L159.092258,71.9091075 C159.05867,72.1787643 159.068,72.4503134 159.12398,72.7161855 L159.137043,72.7843093 L158.532452,74.3341261 C158.504461,74.2309943 158.46994,74.1278624 158.427955,74.0266228 C154.466392,64.4069721 150.601863,57.1394854 146.944462,52.4247496 C146.470493,51.8125814 145.762338,51.4889932 145.04392,51.4889932 C144.574616,51.4889932 144.10158,51.6271332 143.68639,51.9138209 L142.00044,53.0776028 C141.332405,52.8013229 140.583197,52.6584521 139.764947,52.6584521 C137.266345,52.6584521 134.181813,53.9849742 130.056974,56.8310359 C129.50743,57.2104477 129.136092,57.8027465 129.030662,58.4678999 C128.925232,59.1339994 129.094107,59.8142914 129.499966,60.3488742 L131.572182,63.086127 L131.327734,65.0342789 C131.207375,65.9908509 131.651488,66.9284995 132.461341,67.432805 C132.849474,67.6731307 133.287989,67.7942397 133.724638,67.7942397 C133.942029,67.7942397 134.15942,67.7639624 134.370281,67.7053003 C135.656902,68.9996528 139.276983,75.2433899 146.234441,104.992682 L147.022835,108.833163 L146.716808,109.4406 C146.271762,110.327156 146.402383,111.384021 147.016304,112.127706 L146.957524,112.604573 C146.895946,113.089009 146.978984,113.581014 147.197308,114.017196 L148.859,117.359048 C149.172491,117.989193 149.737895,118.450921 150.411529,118.627854 C150.611193,118.679893 150.81459,118.705439 151.017053,118.705439 C151.49662,118.705439 151.970589,118.55973 152.376449,118.280611 L154.086657,117.100745 C154.421608,116.868935 154.69498,116.555754 154.878783,116.188643 L154.925433,116.095918 C155.201605,116.135657 155.447919,116.147958 155.64945,116.147958 C157.275687,116.147958 159.107186,115.429819 161.246579,113.953803 L162.955854,112.773936 C163.764774,112.215699 164.161304,111.219389 163.962572,110.248624 C163.803961,109.475608 163.871137,108.926833 164.221016,108.458482 C164.324581,108.472674 164.429078,108.479297 164.531709,108.479297 C165.012209,108.479297 165.487112,108.332642 165.891105,108.05447 L167.60038,106.873657 C168.069684,106.551015 168.411166,106.070363 168.565113,105.516857 L170.527234,98.5001042 L170.405009,99.4462683 C170.312641,99.7717488 170.288383,100.113314 170.333168,100.449202 C171.041323,105.783676 178.794639,106.400575 184.564376,106.400575 C184.846145,106.400575 185.134445,106.399628 185.426477,106.39679 C186.134632,106.387328 186.802668,106.064686 187.255178,105.513073 C187.694626,104.97849 187.887759,104.280221 187.789793,103.595198 L193.872088,101.811679 C194.724859,101.561891 195.349043,100.870245 195.54964,100.038567 C197.097505,99.2863666 199.896536,98.3070867 204.942256,97.1622281 C204.061495,102.157975 199.244362,110.37541 183.987775,123.502491 L182.951201,124.218738 L180.846329,124.315246 C180.095256,124.349308 179.402029,124.737235 178.972844,125.363596 L176.632854,128.774518 C176.305367,129.251385 176.155153,129.831383 176.2102,130.410436 C176.252186,130.847563 176.315631,131.276176 176.399601,131.680188 C177.528544,137.181186 180.947094,138.002457 182.884024,138.002457 C183.150865,138.002457 183.426103,137.986372 183.706006,137.956095 C185.246406,138.548393 186.808266,138.848327 188.358929,138.848327 C188.411178,138.848327 188.46156,138.847381 188.512876,138.846435 L188.654693,139.884377 C188.775985,140.777556 189.370312,141.52881 190.203491,141.844829 C190.476863,141.948907 190.763297,142 191.047865,142 C191.623533,142 192.18987,141.790898 192.638648,141.393509 C207.817795,127.934324 208.38973,125.523498 208.192865,123.903665 L210.583237,121.829673 C210.744648,121.690587 210.886466,121.529739 211.005891,121.35186 C219.689419,108.487813 224.263036,97.9901217 224.991718,89.2608114 C225.006646,89.0800941 225.001048,88.8984306 224.977722,88.7196056" id="Fill-18" fill="#000800"></path>
                <path d="M141.810191,73 L129.246223,80.6346921 C120.068633,86.2774422 110.861158,91.872743 101.713453,97.5638729 C83.3862909,108.896823 65.1151635,120.320019 47,132 C65.7679706,121.392746 84.3809112,110.528708 102.937817,99.5734921 C112.231212,94.1214697 121.465771,88.5726878 130.731149,83.0732161 L143,75.6999606 C142.607755,74.7984231 142.210841,73.897816 141.810191,73" id="Fill-20" fill="#000800"></path>
                <path d="M141,101 L73.9802896,141.162415 L36.9456218,163.508863 L0,186 L37.358045,164.178851 L74.6279815,142.213015 L140.988752,102.827491 C140.990627,102.218327 140.992501,101.609164 141,101" id="Fill-22" fill="#000800"></path>
                <path d="M218.978132,95.7196056 L218.866171,94.9002274 C218.764472,94.1508654 218.327821,93.4923352 217.682176,93.1129234 C213.150525,90.4551483 208.116912,89.1068645 202.723157,89.1068645 C199.092798,89.1068645 195.240381,89.720925 191.217224,90.9357997 C197.149329,81.1808476 204.428707,73.2907849 212.91074,67.4378136 C213.670214,66.9136387 214.070477,65.9986979 213.943587,65.0761879 C213.901601,64.7601691 213.824161,64.4630736 213.715932,64.1877398 L215.141577,63.2046753 C215.899185,62.6814465 216.300381,61.7665058 216.175357,60.8449419 L216.063396,60.0236715 C215.956099,59.2298398 215.470932,58.5391399 214.766506,58.1748668 C214.494999,58.0348345 214.204831,57.9506259 213.909066,57.9203486 C213.823228,57.288311 213.498539,56.7149355 213.002176,56.3222774 C211.890955,55.4432909 210.518491,54.9976476 208.922104,54.9976476 C207.759568,54.9976476 206.45708,55.2427041 205.004377,55.737548 C204.752463,55.3108279 204.374592,54.9645319 203.91275,54.7563758 C203.598324,54.6153973 203.264305,54.5453812 202.932152,54.5453812 C202.454448,54.5453812 201.979544,54.6891981 201.571817,54.9702089 C190.954114,62.29825 188.563731,62.8612177 188.239975,62.8981181 L188.228779,62.8981181 C187.389066,62.8981181 186.608133,63.3409229 186.168683,64.067577 L174.840023,82.8186577 C174.070286,82.8640735 173.352798,83.2822781 172.930142,83.9701394 L169.101985,90.2034687 C169.078659,90.2432076 168.950836,90.2829465 168.767965,90.3236315 L174.358587,70.316991 C178.266051,58.8920592 181.481219,51.3918161 183.91452,48.0282026 C184.320382,47.4671273 184.472463,46.7584504 184.331578,46.0781584 L183.847343,43.7193712 C183.692463,42.9671707 183.198898,42.3351331 182.519664,42.0068141 L182.507535,41.9500443 C182.310669,40.99158 181.568922,40.2441103 180.622846,40.0492005 C180.462367,40.0160848 180.301889,40 180.142343,40 C179.359544,40 178.6122,40.3869811 178.155956,41.0559192 C177.670788,41.7674346 177.22574,42.4448881 176.821745,43.090172 L173.271626,42.4042031 C173.12141,42.3758181 172.969329,42.3606795 172.819114,42.3606795 C172.337678,42.3606795 171.863707,42.5073349 171.458779,42.7855072 L169.75043,43.9653739 C169.491985,44.1441989 169.27086,44.3703321 169.098252,44.6333657 C168.864066,44.5595649 168.623348,44.5245569 168.383563,44.5245569 C167.775238,44.5245569 167.178109,44.7582594 166.722798,45.1944411 C164.940741,46.906052 163.588803,49.5259805 162.588611,53.2056127 C162.483181,53.59354 162.475717,53.990929 162.55409,54.3675023 C162.071721,54.5841739 161.659329,54.9607472 161.399018,55.455591 C158.114808,61.7050051 156.151745,66.7603601 155.399736,70.9111821 C155.343755,71.2224701 155.347487,71.5432197 155.410932,71.8535616 L155.572343,72.6407701 C155.628324,72.9094807 155.725358,73.1602142 155.858779,73.3872936 C155.682439,73.4544713 155.513564,73.5434107 155.355884,73.6531657 L154.499377,74.2435722 C153.925573,74.6381226 153.548635,75.2635371 153.460932,75.9608601 L153.092391,78.9091075 C153.058803,79.1787643 153.068133,79.4503134 153.123181,79.7161855 L153.137176,79.7843093 L152.532583,81.3341261 C152.504592,81.2309943 152.470071,81.1278624 152.428085,81.0266228 C148.466506,71.4079183 144.601961,64.1404316 140.944545,59.4247496 C140.46964,58.8125814 139.762415,58.4889932 139.043994,58.4889932 C138.574688,58.4889932 138.100717,58.6271332 137.686458,58.9138209 L136.000502,60.0776028 C135.332463,59.8013229 134.583253,59.6584521 133.764999,59.6584521 C131.266387,59.6584521 128.181841,60.9849742 124.056985,63.8319821 C123.507439,64.2113939 123.1361,64.8027465 123.030669,65.4678999 C122.925238,66.1339994 123.094114,66.8142914 123.499042,67.3488742 L125.5722,70.0870731 L125.32775,72.0342789 C125.207392,72.9908509 125.651506,73.9294457 126.461363,74.432805 C126.849497,74.6740768 127.288014,74.7942397 127.723731,74.7942397 C127.942057,74.7942397 128.158516,74.7639624 128.37031,74.7053003 C129.656937,75.9996528 133.277033,82.2433899 140.234521,111.993629 L141.022918,115.833163 L140.716889,116.4406 C140.271841,117.327156 140.40153,118.384021 141.016387,119.127706 L140.957607,119.604573 C140.896028,120.089009 140.979066,120.581014 141.196458,121.017196 L142.85909,124.359994 C143.172583,124.989193 143.73799,125.450921 144.411626,125.627854 C144.611291,125.679893 144.813755,125.705439 145.017152,125.705439 C145.496722,125.705439 145.970693,125.560676 146.376554,125.280611 L148.086769,124.100745 C148.421722,123.868935 148.694162,123.555754 148.878899,123.188643 L148.925549,123.095918 C149.201722,123.136604 149.448037,123.147958 149.649568,123.147958 C151.275812,123.147958 153.10732,122.429819 155.246721,120.953803 L156.956004,119.774882 C157.764927,119.216646 158.161458,118.219389 157.962726,117.248624 C157.804114,116.475608 157.871291,115.926833 158.221171,115.458482 C158.324736,115.472674 158.429233,115.479297 158.531865,115.479297 C159.012367,115.479297 159.487272,115.332642 159.891267,115.05447 L161.600549,113.874603 C162.069855,113.551015 162.411339,113.07131 162.565286,112.517804 L164.526482,105.500104 L164.40519,106.446268 C164.312822,106.772695 164.288564,107.113314 164.333348,107.449202 C165.041506,112.783676 172.794855,113.400575 178.564616,113.400575 C178.846386,113.400575 179.134688,113.399628 179.426721,113.39679 C180.134879,113.388275 180.802917,113.064686 181.255429,112.513073 C181.693946,111.97849 181.888013,111.280221 181.790047,110.595198 L187.872367,108.811679 C188.725142,108.561891 189.349329,107.870245 189.549927,107.038567 C191.097798,106.287313 193.896841,105.307087 198.942582,104.163174 C198.061817,109.157975 193.244664,117.37541 177.988013,130.502491 L176.950501,131.218738 L174.846554,131.315246 C174.095477,131.350254 173.402248,131.737235 172.973061,132.363596 L170.633061,135.774518 C170.30464,136.252331 170.155358,136.832329 170.210406,137.410436 C170.252391,137.84851 170.315836,138.276176 170.398874,138.680188 C171.528755,144.181186 174.947319,145.002457 176.884257,145.002457 C177.151099,145.002457 177.426339,144.986372 177.706243,144.956095 C179.24665,145.548393 180.808516,145.848327 182.359185,145.848327 C182.410501,145.848327 182.461817,145.847381 182.513133,145.846435 L182.654018,146.884377 C182.776243,147.777556 183.370573,148.529756 184.202822,148.844829 C184.477128,148.948907 184.763563,149 185.048133,149 C185.62287,149 186.190142,148.791844 186.638922,148.394455 C201.8172,134.934324 202.39007,132.523498 202.193204,130.903665 L204.583587,128.829673 C204.744066,128.690587 204.885884,128.529739 205.006243,128.35186 C213.688874,115.487813 218.263443,104.991068 218.992128,96.2608114 C219.006123,96.0810403 219.001458,95.8984306 218.978132,95.7196056" id="Fill-24" fill="#000800"></path>
                <path d="M208.78838,114.750443 L204.694391,119.32924 L204.854574,120.10626 L205.707644,119.523027 L208.78838,114.750443 Z M203.815245,126.148287 L203.65413,125.370332 L202.80106,125.953564 L196.136686,131.401125 L196.247511,132.213719 L199.659789,129.878916 L203.815245,126.148287 Z M198.735941,116.297929 L199.589942,115.71376 L201.074432,112.922107 L200.221363,113.50534 L198.735941,116.297929 Z M187.518447,88.4403806 L200.801562,69.5812785 L207.405402,63.2874217 L207.182821,61.6622343 L205.47575,62.8305718 C197.107099,72.0396553 191.08439,80.3050817 187.406691,87.6287231 L187.518447,88.4403806 Z M211.236765,112.188152 L212.089835,111.604919 L214.947991,105.207148 L214.09399,105.791316 L211.236765,112.188152 Z M209.454259,119.625069 L204.396375,123.974505 L204.506268,124.787099 L206.213339,123.619698 C206.437782,125.067949 201.540082,130.194405 191.523032,139 L191.29952,137.375749 L195.5658,134.456777 L195.505265,133.610481 C191.857368,136.106305 188.186188,136.544432 184.489863,134.928606 C181.699692,135.479073 179.957232,134.076693 179.261552,130.719595 C179.198223,130.414404 179.147933,130.083001 179.113475,129.723512 L181.450104,126.348627 L184.232825,126.221308 L185.938033,125.053907 C201.523318,111.77811 208.83867,101.444689 207.879433,94.0536433 C200.509134,95.5421503 195.735296,97.0306572 193.561645,98.518228 L193.672469,99.3317579 L184.64539,101.953964 L185.610216,102.182389 L185.883086,103.772002 C177.802206,103.866555 173.585285,102.605537 173.235117,99.9889478 L177.653199,84.5300074 L181.475249,78.3625333 L181.696898,79.9867846 L194.696898,58.6561992 C196.417938,58.6636885 201.30912,55.9094826 209.373236,50.391709 L209.484992,51.2043027 L203.511641,55.2906756 L203.623397,56.1032693 C210.749696,51.2277069 215.521671,49.7392 217.941185,51.6368123 L218.161903,53.2619998 L213.897485,56.1809713 L214.007379,56.993565 L220.091554,53.7188497 L220.20331,54.5314434 L215.08396,58.0336475 L215.194785,58.8462412 C216.900924,57.6788399 217.827566,57.6376485 217.976574,58.7189224 C207.838455,65.6549903 199.486568,75.2188815 192.91998,87.4096598 L193.031736,88.2222535 C204.596604,83.3757124 214.548463,83.3766485 222.889175,88.2259982 L223,89.0376558 C222.316427,97.1701462 217.80149,107.365015 209.454259,119.625069 L209.454259,119.625069 Z M160.425102,78.7987875 L162.339852,73.9344592 L162.178738,73.1565036 L160.263987,78.0198958 L160.425102,78.7987875 Z M170.205602,50.7867719 L170.044487,50.0088163 C166.913461,55.9132272 164.998711,60.7766194 164.300236,64.5989929 L164.462282,65.3769485 L170.205602,50.7867719 Z M175.050218,41.2547104 L174.890035,40.4767549 C173.453972,41.8426238 172.298231,44.112831 171.429329,47.2855039 L172.282398,46.7022713 L175.050218,41.2547104 Z M176.937961,55.064123 L178.85178,50.2016669 L178.691597,49.4237114 L177.838527,50.006944 L176.084891,55.6482917 L176.937961,55.064123 Z M169.346945,84.2416677 L169.186761,83.4646483 L167.109965,87.5491488 L167.272011,88.3271043 L169.346945,84.2416677 Z M166.740239,90.4681203 C165.618956,91.5128837 164.750985,93.5883679 164.134465,96.6917644 L165.14865,96.8864874 L166.002651,96.3023186 L166.740239,90.4681203 Z M149.285837,90.8603746 L147.512644,82.3028639 L146.659574,82.8860965 L148.432767,91.4436072 L149.285837,90.8603746 Z M146.17623,80.55223 L145.368794,76.6624524 L144.516656,77.245685 L145.323161,81.1354626 L146.17623,80.55223 Z M178.550039,62.8446143 L166.760728,104.666043 L165.054588,105.833444 L164.039473,105.639657 C162.334265,106.807059 161.695394,108.427565 162.125654,110.502113 L160.419514,111.669515 C156.436349,114.393763 154.069919,113.940658 153.31743,110.310199 L153.688087,107.392163 L152.304177,110.115476 L152.786589,112.449342 L153.801705,112.644065 L153.96282,113.422021 L153.270865,114.783209 L151.564725,115.951546 L149.905151,112.645001 L150.273945,109.727902 L149.421807,110.311135 L150.11283,108.949947 L149.145211,104.281278 C142.530196,76.2355598 137.583136,63.3342301 134.304033,65.5782246 L134.672828,62.6601892 L132,59.1598575 C138.824558,54.490252 142.668959,54.2309335 143.528548,58.3790935 L144.381618,57.7958609 L143.897342,55.4610581 L145.604413,54.2936568 C149.137761,58.8087945 152.848986,65.7457986 156.736228,75.1037329 L155.883158,75.6869655 L156.898274,75.8816884 L158.349237,82.883288 L160.056308,81.7158867 L159.363421,83.0770748 L160.169926,86.9677886 L161.023927,86.3836198 C162.196432,79.6947002 165.294864,69.5794061 170.320152,56.0386737 L171.334336,56.2324605 L172.558063,52.7311926 L171.704993,53.3144252 L170.320152,56.0386737 L170.159037,55.2607182 L177.609428,39.5031403 L179.316498,38.3357389 L183.374167,39.1127582 L180.075507,46.700399 L182.635647,44.9488289 C182.30038,43.3311308 183.630274,40.3484999 186.625331,36 L187.109607,38.3348027 C184.883803,40.1359897 183.908733,41.6909646 184.180672,43.0025358 L185.88588,41.8360706 C185.564582,40.2801596 186.257468,38.9180353 187.962676,37.750634 L188.44602,40.0845005 C185.858872,43.6316407 182.559281,51.2183453 178.550039,62.8446143 L178.550039,62.8446143 Z M163.030876,72.573271 L162.178738,73.1565036 L162.016692,72.3794843 L162.386417,69.4623851 L163.240418,68.8782164 L163.723762,71.2111468 L163.030876,72.573271 Z" id="Fill-26" fill="#FFFFFF"></path>
            </g>
        </g>
    </g>
</svg>