<?xml version="1.0" encoding="UTF-8"?>
<svg width="56px" height="38px" viewBox="0 0 56 38" version="1.1" xmlns="http://www.w3.org/2000/svg" xmlns:xlink="http://www.w3.org/1999/xlink">
    <!-- Generator: Sketch 54.1 (76490) - https://sketchapp.com -->
    <title>joystick</title>
    <desc>Created with Sketch.</desc>
    <g id="Page-1" stroke="none" stroke-width="1" fill="none" fill-rule="evenodd">
        <g id="select-player" transform="translate(-692.000000, -766.000000)" fill="#000000" fill-rule="nonzero">
            <g id="joystick" transform="translate(692.000000, 766.000000)">
                <path d="M41.093,14.897 L41.094,14.851 C42.141,14.717 42.966,13.854 42.992,12.766 C43.019,11.679 42.236,10.776 41.199,10.59 L41.2,10.544 C40,10.515 39,11.466 38.971,12.667 C38.941,13.871 39.893,14.867 41.093,14.897 Z M30.792,18.46 L29.259,18.461 C28.942,18.461 28.684,18.719 28.684,19.036 C28.684,19.354 28.94,19.611 29.257,19.61 L30.792,19.61 C31.109,19.611 31.367,19.353 31.367,19.035 C31.368,18.719 31.109,18.461 30.792,18.46 Z M26.216,18.462 L24.683,18.461 C24.366,18.461 24.108,18.719 24.108,19.036 C24.108,19.354 24.365,19.611 24.684,19.612 L26.218,19.611 C26.535,19.61 26.792,19.353 26.792,19.037 C26.792,18.719 26.535,18.461 26.216,18.462 Z M19.113,14.049 C19.104,14.026 19.098,14.002 19.088,13.98 C19.042,13.878 18.979,13.789 18.904,13.707 C18.879,13.68 18.853,13.655 18.825,13.63 C18.809,13.615 18.796,13.598 18.779,13.584 C18.784,13.591 18.787,13.601 18.792,13.607 C18.605,13.452 18.375,13.347 18.112,13.347 L16.499,13.346 L16.499,13.173 L16.499,11.733 C16.499,11.6 16.468,11.475 16.424,11.358 C16.415,11.336 16.409,11.313 16.399,11.291 C16.352,11.19 16.289,11.1 16.215,11.018 C16.19,10.991 16.164,10.965 16.135,10.941 C16.119,10.926 16.106,10.909 16.089,10.895 C16.094,10.902 16.097,10.911 16.102,10.918 C15.915,10.763 15.685,10.658 15.423,10.658 L14.348,10.658 C13.753,10.657 13.271,11.139 13.272,11.734 L13.271,13.347 L11.659,13.347 C11.064,13.346 10.582,13.828 10.583,14.424 L10.583,15.498 C10.583,15.76 10.687,15.99 10.842,16.177 C10.835,16.172 10.826,16.17 10.82,16.164 C10.833,16.181 10.85,16.193 10.864,16.209 C10.89,16.238 10.915,16.265 10.944,16.29 C11.026,16.364 11.116,16.427 11.216,16.474 C11.238,16.485 11.261,16.491 11.284,16.499 C11.401,16.544 11.525,16.574 11.659,16.574 L13.1,16.574 L13.1,16.573 L13.273,16.573 L13.273,18.187 C13.273,18.449 13.377,18.68 13.533,18.867 C13.526,18.862 13.516,18.86 13.51,18.854 C13.524,18.871 13.541,18.884 13.556,18.901 C13.58,18.928 13.604,18.953 13.632,18.978 C13.714,19.053 13.806,19.117 13.908,19.164 C13.929,19.174 13.95,19.18 13.972,19.187 C14.09,19.232 14.214,19.262 14.348,19.262 L15.424,19.263 C16.018,19.263 16.501,18.782 16.501,18.187 L16.501,16.575 L18.115,16.574 C18.709,16.574 19.191,16.092 19.191,15.498 L19.191,14.422 C19.188,14.29 19.157,14.165 19.113,14.049 Z M37.484,14.126 L37.484,14.082 C37.427,14.08 37.375,14.092 37.32,14.094 C37.32,14.094 37.322,14.094 37.323,14.095 C36.195,14.151 35.284,15.058 35.257,16.204 C35.229,17.35 36.096,18.302 37.218,18.412 C37.217,18.412 37.216,18.413 37.214,18.413 C37.27,18.418 37.32,18.432 37.378,18.433 L37.379,18.389 C38.425,18.254 39.25,17.39 39.275,16.304 C39.303,15.217 38.521,14.314 37.484,14.126 Z M54.583,23.671 C54.473,23.245 54.368,22.841 54.286,22.466 C54.119,21.706 53.964,20.928 53.801,20.103 C53.63,19.244 53.454,18.356 53.248,17.404 C53.087,16.666 52.936,15.859 52.775,15.004 C52.242,12.168 51.691,9.236 50.54,6.987 C49.564,5.08 47.927,3.353 45.927,2.123 C43.778,0.801 41.33,0.103 38.85,0.103 C37.546,0.103 36.244,0.296 34.977,0.677 C33.664,1.073 32.608,1.791 31.678,2.425 C30.848,2.991 30.13,3.481 29.468,3.589 C28.866,3.688 28.315,3.738 27.826,3.738 C26.251,3.738 25.483,3.259 24.209,2.465 C23.229,1.853 22.118,1.16 20.56,0.682 C19.399,0.326 17.968,0.252 16.972,0.252 C16.458,0.252 15.947,0.273 15.492,0.312 C11.131,0.698 7.337,2.884 5.342,6.161 C3.97,8.413 3.43,11.213 2.857,14.177 C2.677,15.107 2.492,16.068 2.282,16.984 L1.76,19.309 C1.549,20.259 1.33,21.242 1.114,22.18 C1.011,22.624 0.892,23.077 0.766,23.557 C0.388,24.987 0,26.464 0,27.943 L0.004,28.224 L0.004,28.219 C0.089,30.677 1.133,32.964 2.947,34.659 C4.711,36.309 6.994,37.219 9.377,37.219 C10.761,37.219 12.11,36.913 13.385,36.308 C15.515,35.296 16.851,33.466 17.924,31.996 C17.924,31.996 18.057,31.814 18.058,31.812 C18.332,31.436 18.588,31.037 18.835,30.65 C19.181,30.109 19.822,29.109 20.165,28.91 C20.634,28.776 21.267,28.715 22.153,28.715 C22.854,28.715 23.641,28.754 24.476,28.795 C25.448,28.844 26.549,28.898 27.696,28.898 C28.591,28.898 29.565,28.846 30.507,28.795 C31.43,28.744 32.385,28.692 33.233,28.692 C34.368,28.692 34.946,28.787 35.239,28.871 C35.309,28.918 35.533,29.093 35.917,29.57 C36.292,30.039 36.646,30.58 36.959,31.057 C37.129,31.319 37.291,31.567 37.444,31.781 L37.758,32.231 C38.785,33.707 40.065,35.543 42.407,36.5 C43.535,36.961 44.72,37.192 45.929,37.192 C47.851,37.192 49.799,36.582 51.416,35.47 C53.026,34.364 54.245,32.816 54.843,31.111 C55.161,30.209 55.322,29.225 55.322,28.189 C55.324,26.541 54.93,25.017 54.583,23.671 Z M52.277,30.207 C51.211,33.246 47.187,35.512 43.433,33.978 C41.646,33.248 40.689,31.655 39.662,30.207 C38.974,29.236 37.627,26.793 36.149,26.306 C34.129,25.64 30.407,26.176 27.694,26.176 C24.354,26.176 21.478,25.689 19.37,26.306 C17.785,26.77 16.823,28.886 15.858,30.207 C14.889,31.533 13.795,33.102 12.216,33.85 C7.837,35.924 2.879,32.746 2.721,28.127 C2.667,26.543 3.333,24.646 3.761,22.793 C4.16,21.068 4.552,19.252 4.932,17.591 C5.771,13.921 6.15,10.062 7.663,7.575 C9.299,4.889 12.433,3.314 15.727,3.023 C16.902,2.919 18.706,2.961 19.759,3.283 C23.373,4.394 24.258,7.2 29.904,6.274 C32.179,5.901 33.72,3.895 35.757,3.283 C41.198,1.645 46.28,4.642 48.113,8.225 C49.409,10.756 49.91,14.883 50.584,17.98 C50.986,19.826 51.273,21.462 51.625,23.052 C52.107,25.23 53.124,27.802 52.277,30.207 Z M41.021,17.842 L41.021,17.798 C40.965,17.796 40.912,17.808 40.857,17.81 C40.857,17.81 40.859,17.81 40.859,17.811 C39.732,17.867 38.818,18.774 38.791,19.919 C38.764,21.066 39.63,22.018 40.753,22.128 C40.752,22.128 40.751,22.128 40.749,22.128 C40.805,22.135 40.857,22.148 40.914,22.149 L40.915,22.105 C41.961,21.969 42.787,21.107 42.812,20.02 C42.84,18.932 42.059,18.029 41.021,17.842 Z M44.736,14.305 L44.738,14.261 C44.679,14.259 44.628,14.271 44.572,14.273 C44.573,14.273 44.574,14.274 44.575,14.274 C43.448,14.33 42.536,15.238 42.509,16.384 C42.481,17.528 43.346,18.478 44.467,18.592 C44.467,18.592 44.467,18.592 44.466,18.592 C44.522,18.597 44.572,18.611 44.631,18.613 L44.632,18.568 C45.678,18.432 46.503,17.57 46.529,16.483 C46.555,15.396 45.775,14.493 44.736,14.305 Z" id="Shape"></path>
            </g>
        </g>
    </g>
</svg>