<?xml version="1.0" encoding="UTF-8"?>
<svg width="482px" height="133px" viewBox="0 0 482 133" version="1.1" xmlns="http://www.w3.org/2000/svg" xmlns:xlink="http://www.w3.org/1999/xlink">
    <!-- Generator: Sketch 54.1 (76490) - https://sketchapp.com -->
    <title>logo</title>
    <desc>Created with Sketch.</desc>
    <g id="Page-1" stroke="none" stroke-width="1" fill="none" fill-rule="evenodd">
        <g id="select-player" transform="translate(-479.000000, -47.000000)" fill-rule="nonzero">
            <g id="logo" transform="translate(479.436500, 38.000000)">
                <g id="1749219" transform="translate(240.563500, 71.000000) rotate(135.000000) translate(-240.563500, -71.000000) translate(190.563500, 21.000000)">
                    <polygon id="Path" fill="#725D57" points="27.1413086 72.468023 20.9661114 66.292826 0.382373824 86.8765635 12.732768 99.2269577 33.3165056 78.6432201"></polygon>
                    <polygon id="Path" fill="#53433F" points="27.4912641 72.6741758 33.7098315 78.8925672 12.9815277 99.6202836 6.76372367 93.4018922"></polygon>
                    <polygon id="Path" fill="#F2F2F2" points="99.9522816 0.0804671881 66.1363197 4.91272841 26.8983894 52.1879833 37.3711979 62.6615508 47.8447654 73.1343594 95.1200203 33.896429"></polygon>
                    <polygon id="Path" fill="#CECEE6" points="94.8354055 33.896429 99.6440668 0.0804671881 37.3686177 62.6615508 47.7910342 73.1343594"></polygon>
                    <path d="M68.5991977,88.9391871 L47.1947315,67.3300913 L34.8497314,79.7923464 L40.0652137,85.0584543 C41.2010566,86.2043913 41.2010566,88.0663474 40.0652137,89.2130493 L33.2698564,96.0726062 L68.5991977,88.9391871 Z" id="Path" fill="#FF9100"></path>
                    <path d="M11.0935616,31.8569683 L3.96014253,67.1863096 L10.8196994,60.3908066 C11.9664014,59.255697 13.8283575,59.255697 14.9742945,60.3908066 L20.2404024,65.6071584 L32.7026575,53.2618935 L11.0935616,31.8569683 Z" id="Path" fill="#FDBF00"></path>
                    <path d="M43.7380932,55.8712383 C38.011057,50.1442019 28.7143665,50.1442019 22.9873303,55.8712383 C17.2602941,61.5982746 17.2602941,70.894965 22.9873303,76.6220012 C28.7143665,82.3490374 38.011057,82.3490374 43.7380932,76.6220012 C49.4651296,70.894965 49.4651296,61.5982746 43.7380932,55.8712383 L43.7380932,55.8712383 Z" id="Path" fill="#FFDA2D"></path>
                    <path d="M43.7415937,77.0489189 C37.9908545,82.7996582 28.655687,82.7996582 22.9049477,77.0489189 L43.7415937,56.2122728 C49.4923332,61.9630121 49.4923332,71.2981796 43.7415937,77.0489189 Z" id="Path" fill="#FDBF00"></path>
                    <path d="M39.4985209,60.1108107 C36.1035063,56.7150431 30.6219175,56.7150431 27.2269029,60.1108107 C23.8311351,63.5058252 23.8311351,68.987414 27.2269029,72.3824286 C30.6219175,75.7781964 36.1035063,75.7781964 39.4985209,72.3824286 C42.8942885,68.987414 42.8942885,63.5058252 39.4985209,60.1108107 L39.4985209,60.1108107 Z" id="Path" fill="#FDBF00"></path>
                    <path d="M27.1479336,72.4293845 L39.5457131,60.0318415 C42.9754203,63.4622444 42.9754203,68.9997425 39.5457131,72.4293845 C36.1152447,75.8590265 30.577641,75.8597874 27.1479336,72.4293845 Z" id="Path" fill="#FF9100"></path>
                    <polygon id="Path" fill="#FFDA2D" points="29.1710951 66.6704229 33.3630978 62.4784202 37.5543286 66.6704229 33.3630978 70.8616537"></polygon>
                    <polygon id="Path" fill="#FDBF00" points="31.2155343 68.5143855 35.2075504 64.5228594 37.2035583 66.5186225 33.2115424 70.5108834"></polygon>
                </g>
                <path d="M36.305,83.959 L27.878,83.959 L26.818,88.57 L33.602,88.57 L33.602,95.99 L25.016,95.99 L22.843,105 L14.84,105 L17.066,95.99 L13.886,95.99 L11.713,105 L3.71,105 L5.936,95.99 L-2.84217094e-14,95.99 L-2.84217094e-14,88.57 L7.738,88.57 L8.798,83.959 L2.703,83.959 L2.703,77.069 L10.494,77.069 L12.879,67.37 L20.882,67.37 L18.444,77.069 L21.624,77.069 L24.009,67.37 L32.012,67.37 L29.574,77.069 L36.305,77.069 L36.305,83.959 Z M18.868,88.57 L19.928,83.959 L16.748,83.959 L15.688,88.57 L18.868,88.57 Z M60.314,103.463 C58.9006596,104.06367 57.3901747,104.567165 55.7825,104.9735 C54.1748253,105.379835 52.5936744,105.583 51.039,105.583 C49.9083277,105.583 48.8306718,105.441668 47.806,105.159 C46.7813282,104.876332 45.8891705,104.417003 45.1295,103.781 C44.3698295,103.144997 43.7691689,102.314672 43.3275,101.29 C42.8858311,100.265328 42.665,98.9933409 42.665,97.474 L42.665,84.701 L39.22,84.701 L39.22,77.122 L42.665,77.122 L42.665,68.377 L52.735,68.377 L52.735,77.122 L58.194,77.122 L58.194,84.701 L52.735,84.701 L52.735,93.923 C52.735,94.8416713 52.9293314,95.4864981 53.318,95.8575 C53.7066686,96.2285019 54.2366633,96.414 54.908,96.414 C55.4026691,96.414 55.9679968,96.3345008 56.604,96.1755 C57.2400032,96.0164992 57.8759968,95.7956681 58.512,95.513 L60.314,103.463 Z M91.213,105 L81.143,105 L81.143,89.312 C81.143,87.9339931 80.8338364,86.9358364 80.2155,86.3175 C79.5971636,85.6991636 78.8286713,85.39 77.91,85.39 C77.5919984,85.39 77.2121689,85.4871657 76.7705,85.6815 C76.3288311,85.8758343 75.8871689,86.1408317 75.4455,86.4765 C75.0038311,86.8121683 74.5886686,87.2273309 74.2,87.722 C73.8113314,88.2166691 73.4933346,88.7643303 73.246,89.365 L73.246,105 L63.176,105 L63.176,66.31 L73.246,66.31 L73.246,81.256 C74.2353383,79.7366591 75.524992,78.579504 77.115,77.7845 C78.705008,76.989496 80.4893234,76.592 82.468,76.592 C84.411343,76.592 85.9659942,76.9276633 87.132,77.599 C88.2980058,78.2703367 89.1813303,79.109495 89.782,80.1165 C90.3826697,81.123505 90.7713324,82.2099942 90.948,83.376 C91.1246675,84.5420058 91.213,85.6373282 91.213,86.662 L91.213,105 Z M109.816,105.53 C107.377988,105.53 105.20501,105.15017 103.297,104.3905 C101.38899,103.63083 99.7901731,102.59734 98.5005,101.29 C97.2108269,99.9826601 96.2303367,98.4810085 95.559,96.785 C94.8876633,95.0889915 94.552,93.304676 94.552,91.432 C94.552,89.4179899 94.8788301,87.510009 95.5325,85.708 C96.1861699,83.905991 97.1578269,82.3336734 98.4475,80.991 C99.7371731,79.6483266 101.327157,78.579504 103.2175,77.7845 C105.107843,76.989496 107.307321,76.592 109.816,76.592 C112.289346,76.592 114.47999,76.989496 116.388,77.7845 C118.29601,78.579504 119.894827,79.6394934 121.1845,80.9645 C122.474173,82.2895066 123.44583,83.8264913 124.0995,85.5755 C124.75317,87.3245087 125.08,89.1529905 125.08,91.061 C125.08,91.5910027 125.0535,92.1298306 125.0005,92.6775 C124.9475,93.2251694 124.885667,93.7109979 124.815,94.135 L105.258,94.135 C105.364001,95.6190074 105.911662,96.6878301 106.901,97.3415 C107.890338,97.9951699 108.967994,98.322 110.134,98.322 C111.229339,98.322 112.262828,98.0746691 113.2345,97.58 C114.206172,97.0853309 114.850998,96.3963377 115.169,95.513 L123.702,97.951 C122.571328,100.177011 120.831178,101.99666 118.4815,103.41 C116.131822,104.82334 113.24335,105.53 109.816,105.53 Z M114.268,88.093 C114.091332,86.7503266 113.596671,85.6903372 112.784,84.913 C111.971329,84.1356628 110.929006,83.747 109.657,83.747 C108.384994,83.747 107.342671,84.1356628 106.53,84.913 C105.717329,85.6903372 105.222668,86.7503266 105.046,88.093 L114.268,88.093 Z M157.145,105 L157.145,85.178 L150.838,99.117 L145.326,99.117 L139.019,85.178 L139.019,105 L128.684,105 L128.684,67.37 L139.973,67.37 L148.082,85.072 L156.244,67.37 L167.48,67.37 L167.48,105 L157.145,105 Z M186.507,105.53 C183.998321,105.53 181.798843,105.132504 179.9085,104.3375 C178.018157,103.542496 176.428173,102.482507 175.1385,101.1575 C173.848827,99.8324934 172.87717,98.2955087 172.2235,96.5465 C171.56983,94.7974913 171.243,92.9690095 171.243,91.061 C171.243,89.1529905 171.56983,87.3245087 172.2235,85.5755 C172.87717,83.8264913 173.848827,82.2895066 175.1385,80.9645 C176.428173,79.6394934 178.018157,78.579504 179.9085,77.7845 C181.798843,76.989496 183.998321,76.592 186.507,76.592 C188.980346,76.592 191.17099,76.989496 193.079,77.7845 C194.98701,78.579504 196.585827,79.6394934 197.8755,80.9645 C199.165173,82.2895066 200.13683,83.8264913 200.7905,85.5755 C201.44417,87.3245087 201.771,89.1529905 201.771,91.061 C201.771,92.9690095 201.44417,94.7974913 200.7905,96.5465 C200.13683,98.2955087 199.165173,99.8324934 197.8755,101.1575 C196.585827,102.482507 194.98701,103.542496 193.079,104.3375 C191.17099,105.132504 188.980346,105.53 186.507,105.53 Z M181.578,91.061 C181.578,92.933676 182.037329,94.3999947 182.956,95.46 C183.874671,96.5200053 185.058326,97.05 186.507,97.05 C187.955674,97.05 189.139329,96.5200053 190.058,95.46 C190.976671,94.3999947 191.436,92.933676 191.436,91.061 C191.436,89.188324 190.976671,87.7220053 190.058,86.662 C189.139329,85.6019947 187.955674,85.072 186.507,85.072 C185.058326,85.072 183.874671,85.6019947 182.956,86.662 C182.037329,87.7220053 181.578,89.188324 181.578,91.061 Z M233.359,105 L223.289,105 L223.289,89.312 C223.289,87.9339931 222.979836,86.9358364 222.3615,86.3175 C221.743164,85.6991636 221.027671,85.39 220.215,85.39 C219.366996,85.39 218.466005,85.7609963 217.512,86.503 C216.557995,87.2450037 215.851336,88.1989942 215.392,89.365 L215.392,105 L205.322,105 L205.322,77.122 L214.385,77.122 L214.385,81.256 C215.374338,79.7366591 216.761158,78.579504 218.5455,77.7845 C220.329842,76.989496 222.440988,76.592 224.879,76.592 C226.78701,76.592 228.297494,76.9364966 229.4105,77.6255 C230.523506,78.3145034 231.371497,79.1713282 231.9545,80.196 C232.537503,81.2206718 232.917332,82.3159942 233.094,83.482 C233.270668,84.6480058 233.359,85.7079952 233.359,86.662 L233.359,105 Z M249.736,105.53 C247.297988,105.53 244.913012,105.132504 242.581,104.3375 C240.248988,103.542496 238.270341,102.385341 236.645,100.866 L240.09,94.824 C241.821342,95.9900058 243.490825,96.8909968 245.0985,97.527 C246.706175,98.1630032 248.181327,98.481 249.524,98.481 C250.93734,98.481 251.644,98.0393378 251.644,97.156 C251.644,96.6613309 251.370169,96.2373351 250.8225,95.884 C250.274831,95.5306649 249.206008,95.1243356 247.616,94.665 C245.637323,94.0996638 243.985507,93.5431694 242.6605,92.9955 C241.335493,92.4478306 240.257837,91.8560032 239.4275,91.22 C238.597163,90.5839968 238.005335,89.8773372 237.652,89.1 C237.298665,88.3226628 237.122,87.4040053 237.122,86.344 C237.122,84.9306596 237.404664,83.6233393 237.97,82.422 C238.535336,81.2206607 239.321495,80.1783377 240.3285,79.295 C241.335505,78.4116623 242.536826,77.7315024 243.9325,77.2545 C245.328174,76.7774976 246.856325,76.539 248.517,76.539 C250.566344,76.539 252.518491,76.8039974 254.3735,77.334 C256.228509,77.8640027 258.092324,78.9416585 259.965,80.567 L256.149,86.609 C254.417658,85.4783277 252.969006,84.6745024 251.803,84.1975 C250.636994,83.7204976 249.541672,83.482 248.517,83.482 C247.91633,83.482 247.421669,83.5968322 247.033,83.8265 C246.644331,84.0561678 246.45,84.4183309 246.45,84.913 C246.45,85.4430026 246.732664,85.8758317 247.298,86.2115 C247.863336,86.5471683 248.976325,86.9269979 250.637,87.351 C252.65101,87.8810026 254.346993,88.4374971 255.725,89.0205 C257.103007,89.6035029 258.207163,90.2394966 259.0375,90.9285 C259.867837,91.6175034 260.459665,92.394829 260.813,93.2605 C261.166335,94.126171 261.343,95.1243277 261.343,96.255 C261.343,97.7036739 261.078003,98.9933277 260.548,100.124 C260.017997,101.254672 259.249505,102.226329 258.2425,103.039 C257.235495,103.851671 256.016507,104.469998 254.5855,104.894 C253.154493,105.318002 251.538009,105.53 249.736,105.53 Z M284.027,103.463 C282.61366,104.06367 281.103175,104.567165 279.4955,104.9735 C277.887825,105.379835 276.306674,105.583 274.752,105.583 C273.621328,105.583 272.543672,105.441668 271.519,105.159 C270.494328,104.876332 269.60217,104.417003 268.8425,103.781 C268.08283,103.144997 267.482169,102.314672 267.0405,101.29 C266.598831,100.265328 266.378,98.9933409 266.378,97.474 L266.378,84.701 L262.933,84.701 L262.933,77.122 L266.378,77.122 L266.378,68.377 L276.448,68.377 L276.448,77.122 L281.907,77.122 L281.907,84.701 L276.448,84.701 L276.448,93.923 C276.448,94.8416713 276.642331,95.4864981 277.031,95.8575 C277.419669,96.2285019 277.949663,96.414 278.621,96.414 C279.115669,96.414 279.680997,96.3345008 280.317,96.1755 C280.953003,96.0164992 281.588997,95.7956681 282.225,95.513 L284.027,103.463 Z M300.298,105.53 C297.859988,105.53 295.68701,105.15017 293.779,104.3905 C291.87099,103.63083 290.272173,102.59734 288.9825,101.29 C287.692827,99.9826601 286.712337,98.4810085 286.041,96.785 C285.369663,95.0889915 285.034,93.304676 285.034,91.432 C285.034,89.4179899 285.36083,87.510009 286.0145,85.708 C286.66817,83.905991 287.639827,82.3336734 288.9295,80.991 C290.219173,79.6483266 291.809157,78.579504 293.6995,77.7845 C295.589843,76.989496 297.789321,76.592 300.298,76.592 C302.771346,76.592 304.96199,76.989496 306.87,77.7845 C308.77801,78.579504 310.376827,79.6394934 311.6665,80.9645 C312.956173,82.2895066 313.92783,83.8264913 314.5815,85.5755 C315.23517,87.3245087 315.562,89.1529905 315.562,91.061 C315.562,91.5910027 315.5355,92.1298306 315.4825,92.6775 C315.4295,93.2251694 315.367667,93.7109979 315.297,94.135 L295.74,94.135 C295.846001,95.6190074 296.393662,96.6878301 297.383,97.3415 C298.372338,97.9951699 299.449994,98.322 300.616,98.322 C301.711339,98.322 302.744828,98.0746691 303.7165,97.58 C304.688172,97.0853309 305.332998,96.3963377 305.651,95.513 L314.184,97.951 C313.053328,100.177011 311.313178,101.99666 308.9635,103.41 C306.613822,104.82334 303.72535,105.53 300.298,105.53 Z M304.75,88.093 C304.573332,86.7503266 304.078671,85.6903372 303.266,84.913 C302.453329,84.1356628 301.411006,83.747 300.139,83.747 C298.866994,83.747 297.824671,84.1356628 297.012,84.913 C296.199329,85.6903372 295.704668,86.7503266 295.528,88.093 L304.75,88.093 Z M337.769,85.708 C335.825657,85.708 334.059008,85.9199979 332.469,86.344 C330.878992,86.7680021 329.695337,87.4746617 328.918,88.464 L328.918,105 L318.848,105 L318.848,77.122 L328.07,77.122 L328.07,82.422 C329.059338,80.549324 330.287159,79.109505 331.7535,78.1025 C333.219841,77.095495 334.800992,76.592 336.497,76.592 C337.168337,76.592 337.592332,76.6096665 337.769,76.645 L337.769,85.708 Z M341.585,105 L341.585,67.37 L351.92,67.37 L351.92,81.68 L363.368,67.37 L375.028,67.37 L361.354,84.224 L375.982,105 L364.11,105 L354.782,91.167 L351.92,94.135 L351.92,105 L341.585,105 Z M377.466,105 L377.466,77.122 L387.536,77.122 L387.536,105 L377.466,105 Z M377.466,74.79 L377.466,66.31 L387.536,66.31 L387.536,74.79 L377.466,74.79 Z M392.412,66.31 L402.482,66.31 L402.482,93.923 C402.482,96.0430106 403.347658,97.103 405.079,97.103 C405.503002,97.103 405.962331,97.032334 406.457,96.891 C406.951669,96.749666 407.410998,96.5553346 407.835,96.308 L409.107,103.728 C407.905661,104.293336 406.554174,104.734998 405.0525,105.053 C403.550826,105.371002 402.128673,105.53 400.786,105.53 C398.100653,105.53 396.033674,104.841007 394.585,103.463 C393.136326,102.084993 392.412,100.08868 392.412,97.474 L392.412,66.31 Z M411.227,66.31 L421.297,66.31 L421.297,93.923 C421.297,96.0430106 422.162658,97.103 423.894,97.103 C424.318002,97.103 424.777331,97.032334 425.272,96.891 C425.766669,96.749666 426.225998,96.5553346 426.65,96.308 L427.922,103.728 C426.720661,104.293336 425.369174,104.734998 423.8675,105.053 C422.365826,105.371002 420.943673,105.53 419.601,105.53 C416.915653,105.53 414.848674,104.841007 413.4,103.463 C411.951326,102.084993 411.227,100.08868 411.227,97.474 L411.227,66.31 Z M443.981,105.53 C441.542988,105.53 439.37001,105.15017 437.462,104.3905 C435.55399,103.63083 433.955173,102.59734 432.6655,101.29 C431.375827,99.9826601 430.395337,98.4810085 429.724,96.785 C429.052663,95.0889915 428.717,93.304676 428.717,91.432 C428.717,89.4179899 429.04383,87.510009 429.6975,85.708 C430.35117,83.905991 431.322827,82.3336734 432.6125,80.991 C433.902173,79.6483266 435.492157,78.579504 437.3825,77.7845 C439.272843,76.989496 441.472321,76.592 443.981,76.592 C446.454346,76.592 448.64499,76.989496 450.553,77.7845 C452.46101,78.579504 454.059827,79.6394934 455.3495,80.9645 C456.639173,82.2895066 457.61083,83.8264913 458.2645,85.5755 C458.91817,87.3245087 459.245,89.1529905 459.245,91.061 C459.245,91.5910027 459.2185,92.1298306 459.1655,92.6775 C459.1125,93.2251694 459.050667,93.7109979 458.98,94.135 L439.423,94.135 C439.529001,95.6190074 440.076662,96.6878301 441.066,97.3415 C442.055338,97.9951699 443.132994,98.322 444.299,98.322 C445.394339,98.322 446.427828,98.0746691 447.3995,97.58 C448.371172,97.0853309 449.015998,96.3963377 449.334,95.513 L457.867,97.951 C456.736328,100.177011 454.996178,101.99666 452.6465,103.41 C450.296822,104.82334 447.40835,105.53 443.981,105.53 Z M448.433,88.093 C448.256332,86.7503266 447.761671,85.6903372 446.949,84.913 C446.136329,84.1356628 445.094006,83.747 443.822,83.747 C442.549994,83.747 441.507671,84.1356628 440.695,84.913 C439.882329,85.6903372 439.387668,86.7503266 439.211,88.093 L448.433,88.093 Z M481.452,85.708 C479.508657,85.708 477.742008,85.9199979 476.152,86.344 C474.561992,86.7680021 473.378337,87.4746617 472.601,88.464 L472.601,105 L462.531,105 L462.531,77.122 L471.753,77.122 L471.753,82.422 C472.742338,80.549324 473.970159,79.109505 475.4365,78.1025 C476.902841,77.095495 478.483992,76.592 480.18,76.592 C480.851337,76.592 481.275332,76.6096665 481.452,76.645 L481.452,85.708 Z" id="#theMonsterKiller" fill="#F7E480"></path>
            </g>
        </g>
    </g>
</svg>