<?xml version="1.0" encoding="UTF-8"?>
<svg width="259px" height="254px" viewBox="0 0 259 254" version="1.1" xmlns="http://www.w3.org/2000/svg" xmlns:xlink="http://www.w3.org/1999/xlink">
    <!-- Generator: Sketch 55 (78076) - https://sketchapp.com -->
    <title>monster1</title>
    <desc>Created with Sketch.</desc>
    <g id="Page-1" stroke="none" stroke-width="1" fill="none" fill-rule="evenodd">
        <g id="game" transform="translate(-929.000000, -251.000000)" fill-rule="nonzero">
            <g id="monster1" transform="translate(929.000000, 247.000000)">
                <path d="M216,92.2413793 C216,44.059296 176.601058,5 128,5 C79.398942,5 40,44.059296 40,92.2413793 L40,223.103448 C40.0000002,232.739865 47.8797885,240.551724 57.6,240.551724 C67.3202115,240.551724 75.1999998,232.739865 75.2,223.103448 L75.2,201.293103 C75.2,210.92952 83.0797884,218.741379 92.8,218.741379 C102.520212,218.741379 110.4,210.92952 110.4,201.293103 L110.4,240.551724 C110.4,250.188141 118.279788,258 128,258 C137.720212,258 145.6,250.188141 145.6,240.551724 L145.6,183.844828 C145.6,193.481244 153.479788,201.293103 163.2,201.293103 C172.920212,201.293103 180.8,193.481244 180.8,183.844828 L180.8,231.827586 C180.8,241.464003 188.679788,249.275862 198.4,249.275862 C208.120212,249.275862 216,241.464003 216,231.827586 L216,92.2413793 Z" id="Path" fill="#F98C96"></path>
                <rect id="Rectangle" fill="#E4544F" x="70" y="183" width="9" height="9"></rect>
                <rect id="Rectangle" fill="#E4544F" x="176" y="166" width="9" height="9"></rect>
                <path d="M127.5,153 C156.494949,153 180,129.718807 180,101 L75,101 C75,129.718807 98.5050506,153 127.5,153 Z" id="Path" fill="#FFFFFF"></path>
                <path d="M127,135 C146.329966,135 162,119.329966 162,100 L92,100 C92,119.329966 107.670034,135 127,135 Z" id="Path" fill="#FFD782"></path>
                <path d="M127.5,118 C137.164983,118 145,110.388841 145,101 L110,101 C110,110.388841 117.835017,118 127.5,118 Z" id="Path" fill="#E4544F"></path>
                <path d="M127.5,48 L127.5,48 C156.494949,48 180,71.281193 180,100 L180,100 L75,100 L75,100 C75,71.281193 98.5050506,48 127.5,48 L127.5,48 Z" id="Path" fill="#394D5C"></path>
                <path d="M181.364003,55 C165.282665,26.3882353 128.365085,25.9411765 128,25.9411765 L128,17 C129.724257,17 170.354269,17.38 189,50.5294118 L181.364003,55 Z" id="Path" fill="#E4544F"></path>
                <circle id="Oval" fill="#F98C96" cx="18" cy="35" r="13"></circle>
                <circle id="Oval" fill="#F98C96" cx="237.5" cy="21.5" r="17.5"></circle>
                <circle id="Oval" fill="#F98C96" cx="246" cy="153" r="13"></circle>
                <ellipse id="Oval" fill="#F98C96" cx="9" cy="109.5" rx="9" ry="8.5"></ellipse>
                <rect id="Rectangle" fill="#495059" x="70" y="183" width="9" height="9"></rect>
                <rect id="Rectangle" fill="#495059" x="176" y="166" width="9" height="9"></rect>
                <path d="M127,43 C95.5197693,43 70,68.5197693 70,100 C70,131.480231 95.5197693,157 127,157 C158.480231,157 184,131.480231 184,100 C183.963757,68.534794 158.465206,43.0362433 127,43 Z M127,148.230769 C102.072923,148.201041 81.2634795,129.205657 78.9665385,104.384615 L87.7971538,104.384615 C90.0890385,124.301872 106.951313,139.335071 127,139.335071 C147.048687,139.335071 163.910961,124.301872 166.202846,104.384615 L175.033462,104.384615 C172.73652,129.205657 151.927077,148.201041 127,148.230769 Z M127,121.923077 C137.413904,121.909931 146.386872,114.585058 148.484615,104.384615 L157.385385,104.384615 C155.216537,119.496215 142.270829,130.71658 127.004385,130.71658 C111.73794,130.71658 98.7922321,119.496215 96.6233846,104.384615 L105.515385,104.384615 C107.613128,114.585058 116.586096,121.909931 127,121.923077 Z M114.595923,104.384615 L139.404077,104.384615 C137.548044,109.643862 132.577144,113.160957 127,113.160957 C121.422856,113.160957 116.451956,109.643862 114.595923,104.384615 Z M78.9665385,95.6153846 C81.2208931,70.7690894 102.051643,51.7427885 127,51.7427885 C151.948357,51.7427885 172.779107,70.7690894 175.033462,95.6153846 L78.9665385,95.6153846 Z" id="Shape" fill="#3D4851"></path>
                <path d="M128,17 L128,25.9411765 C128.369457,25.9411765 165.284375,26.3882353 181.364554,55 L189,50.5651765 C170.351215,17.38 129.724133,17 128,17 Z" id="Path" fill="#495059"></path>
            </g>
        </g>
    </g>
</svg>