<?xml version="1.0" encoding="UTF-8"?>
<svg width="268px" height="258px" viewBox="0 0 268 258" version="1.1" xmlns="http://www.w3.org/2000/svg" xmlns:xlink="http://www.w3.org/1999/xlink">
    <!-- Generator: Sketch 54.1 (76490) - https://sketchapp.com -->
    <title>monster1</title>
    <desc>Created with Sketch.</desc>
    <g id="Page-1" stroke="none" stroke-width="1" fill="none" fill-rule="evenodd">
        <g id="game" transform="translate(-925.000000, -247.000000)" fill-rule="nonzero">
            <g id="monster1" transform="translate(925.000000, 247.000000)">
                <path d="M220,92.2413793 C220,44.059296 180.601058,5 132,5 C83.398942,5 44,44.059296 44,92.2413793 L44,223.103448 C44.0000002,232.739865 51.8797885,240.551724 61.6,240.551724 C71.3202115,240.551724 79.1999998,232.739865 79.2,223.103448 L79.2,201.293103 C79.2,210.92952 87.0797884,218.741379 96.8,218.741379 C106.520212,218.741379 114.4,210.92952 114.4,201.293103 L114.4,240.551724 C114.4,250.188141 122.279788,258 132,258 C141.720212,258 149.6,250.188141 149.6,240.551724 L149.6,183.844828 C149.6,193.481244 157.479788,201.293103 167.2,201.293103 C176.920212,201.293103 184.8,193.481244 184.8,183.844828 L184.8,231.827586 C184.8,241.464003 192.679788,249.275862 202.4,249.275862 C212.120212,249.275862 220,241.464003 220,231.827586 L220,92.2413793 Z" id="Path" fill="#F98C96"></path>
                <rect id="Rectangle" fill="#E4544F" x="74" y="183" width="9" height="9"></rect>
                <rect id="Rectangle" fill="#E4544F" x="180" y="166" width="9" height="9"></rect>
                <path d="M131.5,153 C160.494949,153 184,129.718807 184,101 L79,101 C79,129.718807 102.505051,153 131.5,153 Z" id="Path" fill="#FFFFFF"></path>
                <path d="M131,135 C150.329966,135 166,119.329966 166,100 L96,100 C96,119.329966 111.670034,135 131,135 Z" id="Path" fill="#FFD782"></path>
                <path d="M131.5,118 C141.164983,118 149,110.388841 149,101 L114,101 C114,110.388841 121.835017,118 131.5,118 Z" id="Path" fill="#E4544F"></path>
                <path d="M131.5,48 L131.5,48 C160.494949,48 184,71.281193 184,100 L184,100 L79,100 L79,100 C79,71.281193 102.505051,48 131.5,48 L131.5,48 Z" id="Path" fill="#394D5C"></path>
                <path d="M104.75,87 L96,87 C96,66.434 118.894375,61 131,61 L131,69.6666667 C129.936875,69.6666667 104.75,69.944 104.75,87 Z" id="Path" fill="#98A5A6"></path>
                <path d="M185.364003,55 C169.282665,26.3882353 132.365085,25.9411765 132,25.9411765 L132,17 C133.724257,17 174.354269,17.38 193,50.5294118 L185.364003,55 Z" id="Path" fill="#E4544F"></path>
                <circle id="Oval" fill="#F98C96" cx="22" cy="35" r="13"></circle>
                <circle id="Oval" fill="#F98C96" cx="241.5" cy="21.5" r="17.5"></circle>
                <circle id="Oval" fill="#F98C96" cx="250" cy="153" r="13"></circle>
                <ellipse id="Oval" fill="#F98C96" cx="13" cy="109.5" rx="9" ry="8.5"></ellipse>
                <rect id="Rectangle" fill="#000000" x="74" y="183" width="9" height="9"></rect>
                <rect id="Rectangle" fill="#000000" x="180" y="166" width="9" height="9"></rect>
                <path d="M131,43 C99.5197693,43 74,68.5197693 74,100 C74,131.480231 99.5197693,157 131,157 C162.480231,157 188,131.480231 188,100 C187.963757,68.534794 162.465206,43.0362433 131,43 Z M131,148.230769 C106.072923,148.201041 85.2634795,129.205657 82.9665385,104.384615 L91.7971538,104.384615 C94.0890385,124.301872 110.951313,139.335071 131,139.335071 C151.048687,139.335071 167.910961,124.301872 170.202846,104.384615 L179.033462,104.384615 C176.73652,129.205657 155.927077,148.201041 131,148.230769 Z M131,121.923077 C141.413904,121.909931 150.386872,114.585058 152.484615,104.384615 L161.385385,104.384615 C159.216537,119.496215 146.270829,130.71658 131.004385,130.71658 C115.73794,130.71658 102.792232,119.496215 100.623385,104.384615 L109.515385,104.384615 C111.613128,114.585058 120.586096,121.909931 131,121.923077 Z M118.595923,104.384615 L143.404077,104.384615 C141.548044,109.643862 136.577144,113.160957 131,113.160957 C125.422856,113.160957 120.451956,109.643862 118.595923,104.384615 Z M82.9665385,95.6153846 C85.2208931,70.7690894 106.051643,51.7427885 131,51.7427885 C155.948357,51.7427885 176.779107,70.7690894 179.033462,95.6153846 L82.9665385,95.6153846 Z" id="Shape" fill="#000000"></path>
                <path d="M96,87 L104.75,87 C104.75,69.944 129.936875,69.6666667 131,69.6666667 L131,61 C118.894375,61 96,66.434 96,87 Z" id="Path" fill="#000000"></path>
                <path d="M132,17 L132,25.9411765 C132.369457,25.9411765 169.284375,26.3882353 185.364554,55 L193,50.5651765 C174.351215,17.38 133.724133,17 132,17 Z" id="Path" fill="#000000"></path>
                <path d="M21.5,17 C11.8350169,17 4,24.8350169 4,34.5 C4,44.1649831 11.8350169,52 21.5,52 C31.1649831,52 39,44.1649831 39,34.5 C39,29.8587114 37.1562553,25.407518 33.8743687,22.1256313 C30.592482,18.8437447 26.1412886,17 21.5,17 Z M21.5,43.25 C16.6675084,43.25 12.75,39.3324916 12.75,34.5 C12.75,29.6675084 16.6675084,25.75 21.5,25.75 C26.3324916,25.75 30.25,29.6675084 30.25,34.5 C30.25,39.3324916 26.3324916,43.25 21.5,43.25 Z" id="Shape" fill="#000000"></path>
                <path d="M264,22 C264,9.8497355 254.150264,-1.95399252e-15 242,0 C229.849736,1.95399252e-15 220,9.8497355 220,22 C220,34.1502645 229.849736,44 242,44 C254.144234,43.9854531 263.985453,34.1442339 264,22 Z M228.8,22 C228.8,14.7098413 234.709841,8.8 242,8.8 C249.290159,8.8 255.2,14.7098413 255.2,22 C255.2,29.2901587 249.290159,35.2 242,35.2 C234.709841,35.2 228.8,29.2901587 228.8,22 Z" id="Shape" fill="#000000"></path>
                <path d="M250.5,135 C240.835017,135 233,142.835017 233,152.5 C233,162.164983 240.835017,170 250.5,170 C260.164983,170 268,162.164983 268,152.5 C268,142.835017 260.164983,135 250.5,135 Z M250.5,161.25 C245.667508,161.25 241.75,157.332492 241.75,152.5 C241.75,147.667508 245.667508,143.75 250.5,143.75 C255.332492,143.75 259.25,147.667508 259.25,152.5 C259.25,157.332492 255.332492,161.25 250.5,161.25 Z" id="Shape" fill="#000000"></path>
                <path d="M13,96 C5.82029825,96 1.92438658e-15,101.820298 0,109 C-1.92438658e-15,116.179702 5.82029825,122 13,122 C20.1797017,122 26,116.179702 26,109 C26,101.820298 20.1797017,96 13,96 Z M13,113.333333 C10.6067661,113.333333 8.66666667,111.393234 8.66666667,109 C8.66666667,106.606766 10.6067661,104.666667 13,104.666667 C15.3932339,104.666667 17.3333333,106.606766 17.3333333,109 C17.3333333,111.393234 15.3932339,113.333333 13,113.333333 Z" id="Shape" fill="#000000"></path>
            </g>
        </g>
    </g>
</svg>