<?xml version="1.0" encoding="UTF-8"?>
<svg width="162px" height="228px" viewBox="0 0 162 228" version="1.1" xmlns="http://www.w3.org/2000/svg" xmlns:xlink="http://www.w3.org/1999/xlink">
    <!-- Generator: Sketch 54.1 (76490) - https://sketchapp.com -->
    <title>player2</title>
    <desc>Created with Sketch.</desc>
    <g id="Page-1" stroke="none" stroke-width="1" fill="none" fill-rule="evenodd">
        <g id="select-player" transform="translate(-641.000000, -301.000000)" fill-rule="nonzero">
            <g id="player2" transform="translate(641.000000, 301.000000)">
                <path d="M29.364364,147 L35,157.453581 L30.3229677,169.56619 C28.9891098,169.933913 27.6279602,170.274269 26.2463426,170.58042 C23.356885,171.220086 20.3821425,171.709242 17.3459947,172 L9,161.214613 L16.4163878,150.136759 C20.921144,149.606554 25.3252641,148.434973 29.364364,147 Z" id="Path" fill="#84A3E3"></path>
                <path d="M132.635636,147 L127,157.453581 L131.677032,169.56619 C133.01089,169.933913 134.37204,170.274269 135.753657,170.58042 C138.643115,171.220086 141.617858,171.709242 144.654005,172 L153,161.214613 L145.583612,150.136759 C141.078856,149.606554 136.674736,148.434973 132.635636,147 L132.635636,147 Z" id="Path" fill="#84A3E3"></path>
                <path d="M145.576344,192.577078 C136.020519,180.563693 131.934905,169.584075 131.934905,169.584075 L81.9984614,143 L30.0655386,169.584075 C30.0655386,169.584075 25.979925,180.563693 16.4240996,192.577078 C13.7737824,195.909271 14.9590826,200.868203 18.8488944,202.601643 C27.8592724,206.617766 46.3905112,212 81.0002219,212 C115.608184,212 134.139423,206.619515 143.151549,202.601643 C147.039613,200.868203 148.226661,195.909271 145.576344,192.577078 L145.576344,192.577078 Z" id="Path" fill="#E3254C"></path>
                <g id="Group" transform="translate(0.000000, 134.000000)" fill="#FFCABD">
                    <path d="M16.0637019,15.9085398 L17.0111821,38.2908137 C15.0814519,38.4764277 13.1273825,38.5814923 11.1559279,38.5902481 C5.02251448,38.6200163 0.0295544077,33.6382002 -1.35525272e-19,27.4603985 C-0.0295544077,21.2843482 4.91646635,16.2552533 11.0481414,16.2254847 C12.7257898,16.2184808 14.4016999,16.1081628 16.0637019,15.9085398 L16.0637019,15.9085398 Z" id="Path"></path>
                    <path d="M62.3407238,20.5576509 C61.5966476,21.1074894 48.0850576,30.876751 30.2376587,35.8007811 L29.2606243,12.6953123 C40.6095254,8.64857231 49.1577095,2.56182662 49.2846196,2.47427252 C54.2410714,-1.16096455 61.1846237,-0.0560344828 64.7902644,4.94154117 C68.3941663,9.93386303 67.2971757,16.9294181 62.3407238,20.5576509 L62.3407238,20.5576509 Z" id="Path"></path>
                    <path d="M145.713771,15.9085398 L144.76629,38.2908137 C146.696021,38.4764277 148.65009,38.5814923 150.621545,38.5902481 C156.754958,38.6200163 161.747918,33.6382002 161.777473,27.4603985 C161.807027,21.2843482 156.861006,16.2552533 150.729331,16.2254847 C149.051683,16.2184808 147.375773,16.1081628 145.713771,15.9085398 L145.713771,15.9085398 Z" id="Path"></path>
                    <path d="M99.4367487,20.5576509 C100.180825,21.1074894 113.692415,30.876751 131.539814,35.8007811 L132.516848,12.6953123 C121.167947,8.64857231 112.619763,2.56182662 112.492853,2.47427252 C107.536401,-1.16096455 100.592849,-0.0560344828 96.9872081,4.94154117 C93.3833063,9.93386303 94.4802968,16.9294181 99.4367487,20.5576509 L99.4367487,20.5576509 Z" id="Path"></path>
                </g>
                <polygon id="Path" fill="#FFDCCE" points="112 208.866949 100.499127 213 89 208.866949 89 188 112 188"></polygon>
                <polygon id="Path" fill="#FFCABD" points="99.7162008 208.866949 99.7162008 188 89 188 89 208.866949 100.6419 213 106 211.097788"></polygon>
                <path d="M115.252751,218.046383 C115.107268,217.968471 114.958321,217.897485 114.809374,217.82823 C112.959662,216.988518 111.828705,215.080554 111.828705,213.051395 L111.828705,209 L89,209 L89,222.293421 C89,225.444505 91.5546116,228 94.7084752,228 L112.635789,228 C118.10872,228 120.093524,220.600146 115.252751,218.046383 L115.252751,218.046383 Z" id="Path" fill="#84A3E3"></path>
                <path d="M100.014954,222.293421 L100.014954,209 L89,209 L89,222.293421 C89,225.444505 91.6801961,228 94.985046,228 L106,228 C102.693335,228 100.014954,225.444505 100.014954,222.293421 Z" id="Path" fill="#2E67CF"></path>
                <polygon id="Path" fill="#FFDCCE" points="50 208.866949 61.5008726 213 73 208.866949 73 188 50 188"></polygon>
                <polygon id="Path" fill="#FFCABD" points="60.7150875 208.866949 60.7150875 188 50 188 50 208.866949 61.6424565 213 67 211.097788"></polygon>
                <path d="M46.7472492,218.046383 C46.8927322,217.968471 47.0416793,217.897485 47.190626,217.82823 C49.0403382,216.988518 50.1712951,215.080554 50.1712951,213.051395 L50.1712951,209 L73,209 L73,222.293421 C73,225.444505 70.4453884,228 67.2915248,228 L49.3642111,228 C43.8912798,228 41.906476,220.600146 46.7472492,218.046383 L46.7472492,218.046383 Z" id="Path" fill="#84A3E3"></path>
                <path d="M57.5079228,218.046383 C57.6579866,217.968471 57.8080509,217.897485 57.961646,217.82823 C59.8471552,216.988518 61,215.080554 61,213.051395 L61,209 L50.2907282,209 L50.2907282,213.051395 C50.2907282,215.080554 49.1378839,216.988518 47.2523742,217.82823 C47.100545,217.895754 46.9487153,217.968471 46.8004168,218.046383 C41.86596,220.598414 43.8891757,228 49.4680248,228 L60.1755307,228 C54.5984471,228 52.5752318,220.598414 57.5079228,218.046383 L57.5079228,218.046383 Z" id="Path" fill="#2E67CF"></path>
                <path d="M119,169.57051 L81.9983897,179 L43,169.57051 C43.6067272,167.155126 44.2816453,164.882133 45.0002761,162.740985 C49.8995535,148.134417 56.8078497,139.814175 58.4199606,138 L103.611513,138.031643 C105.276078,139.914377 112.128422,148.224071 116.999724,162.740985 C117.720103,164.882133 118.393273,167.155126 119,169.57051 Z" id="Path" fill="#FF889E"></path>
                <path d="M53.5657837,169.57051 C54.1720314,167.155126 54.8427365,164.882133 55.5604781,162.740985 C60.4348498,148.151996 67.3073999,139.83527 68.9240606,138.008789 L58.3635033,138 C56.7572949,139.814175 49.8742921,148.134417 44.9929525,162.740985 C44.2769528,164.882133 43.6045058,167.155126 43,169.57051 L81.8556045,179 L87,177.683317 L53.5657837,169.57051 Z" id="Path" fill="#FD5F7E"></path>
                <path d="M121.998333,191.517439 C122.057738,193.414668 120.521939,195 118.593017,195 L43.4069834,195 C41.4780612,195 39.9422616,193.414668 40.001667,191.513992 C40.1571688,186.645988 40.6393994,182.103667 41.343526,177.895644 C41.8135259,175.119589 42.3848644,172.486559 43.0260909,170 L118.972162,170 C119.615136,172.486559 120.186474,175.119589 120.654727,177.895644 C121.360601,182.103667 121.842831,186.645988 121.998333,191.517439 L121.998333,191.517439 Z" id="Path" fill="#84A3E3"></path>
                <path d="M50.5956138,191.515474 C50.7528197,186.647135 51.234919,182.104501 51.9388528,177.896187 C52.4069778,175.119942 52.9781602,172.486731 53.6209586,170 L43.0252644,170 C42.3824659,172.486731 41.8130306,175.118219 41.343159,177.896187 C40.6392247,182.104501 40.1571259,186.647135 40.0016666,191.515474 C39.9422774,193.41628 41.4776575,194.999999 43.4060528,194.999999 L54,195 C52.0733517,195.001722 50.5379716,193.41628 50.5956138,191.515474 L50.5956138,191.515474 Z" id="Path" fill="#2E67CF"></path>
                <path d="M97,144 C97,152.283079 90.2844555,159 81.9991132,159 C73.7155441,159 67,152.283079 67,144 C67,135.715147 73.7155441,129 81.9991132,129 C90.2844555,129 97,135.715147 97,144 L97,144 Z" id="Path" fill="#FFCABD"></path>
                <path d="M26,23.201753 C26,23.201753 40.4389544,0 81.5,0 C122.561046,0 137,23.201753 137,23.201753 L137,41 L26,41 L26,23.201753 Z" id="Path" fill="#F0BC63"></path>
                <path d="M50.3727384,109 L11.989454,84 C8.63438216,95.0749411 6.55851911,104.231334 5.28632935,111.547098 C3.24556119,123.276562 12.3719881,134 24.4323485,134 L55,134 L50.3727384,109 Z" id="Path" fill="#F0BC63"></path>
                <path d="M111.627262,109 L150.010546,84 C153.365618,95.0749411 155.441481,104.231334 156.713671,111.547098 C158.754439,123.276562 149.628012,134 137.567652,134 L107,134 L111.627262,109 Z" id="Path" fill="#F0BC63"></path>
                <path d="M81.9991299,144 C49.3243218,143.46715 23,116.711107 23,83.7827422 C23,83.7320779 23,83.6814136 23,83.6307493 L23,83.9329886 C23,83.8823243 23,83.83166 23,83.7809953 C23,68.396489 28.7465892,54.3589566 38.2035751,43.7124447 C48.9866964,31.5757012 116.215875,32.1819266 127.023362,45.138036 C135.747666,55.5958668 141,69.0725968 141,83.7809953 L141,83.9329886 L141,83.6307493 L141,83.7827422 C141,116.70936 114.675678,143.46715 81.9991299,144 Z" id="Path" fill="#FFDCCE"></path>
                <path d="M112.5,92 C110.567745,92 109,90.460366 109,88.5627587 L109,82.4372408 C109,80.5378959 110.567745,79 112.5,79 C114.434024,79 116,80.5378959 116,82.4372408 L116,88.5627587 C116,90.460366 114.434024,92 112.5,92 L112.5,92 Z" id="Path" fill="#3D4851"></path>
                <path d="M116.611853,101 L108.388146,101 C106.51593,101 105,99.432255 105,97.5 C105,95.5659756 106.51593,94 108.388146,94 L116.611853,94 C118.482357,94 120,95.5659756 120,97.5 C120,99.432255 118.482357,101 116.611853,101 Z" id="Path" fill="#FF889E"></path>
                <path d="M49.5,92 C47.5677454,92 46,90.460366 46,88.5627587 L46,82.4372408 C46,80.5378959 47.5677454,79 49.5,79 C51.432255,79 53,80.5378959 53,82.4372408 L53,88.5627587 C53,90.460366 51.432255,92 49.5,92 Z" id="Path" fill="#3D4851"></path>
                <path d="M53.6118536,101 L45.3881469,101 C43.5176428,101 42,99.432255 42,97.5 C42,95.5659756 43.5176428,94 45.3881469,94 L53.6118536,94 C55.48407,94 57,95.5659756 57,97.5 C57,99.432255 55.48407,101 53.6118536,101 Z" id="Path" fill="#FF889E"></path>
                <path d="M81.0000817,101 C77.8384915,101 74.8648033,99.5717407 72.8426957,97.0843433 C71.603228,95.5596296 71.7480337,93.2410266 73.1650608,91.9073659 C74.5838117,90.5737052 76.736934,90.7295154 77.9764017,92.2542286 C78.7038776,93.1482822 79.8054351,93.6620846 81.0000817,93.6620846 C82.1947284,93.6620846 83.2962859,93.1482822 84.0220381,92.2542286 C85.2615057,90.7276606 87.4163518,90.5737052 88.8333789,91.9073659 C90.2521298,93.2410266 90.3969355,95.5577748 89.1574678,97.0843433 C87.1353602,99.5717407 84.161672,101 81.0000817,101 Z" id="Path" fill="#3D4851"></path>
                <path d="M141,83.5513894 C140.99652,68.9130552 135.745926,55.5026993 127.023362,45.0927144 C116.215875,32.1954657 48.9866964,31.5901733 38.2035751,43.6734082 C28.7500701,54.2677636 23.0052207,68.238189 23,83.5496502 L23,83.4157207 L23,83.5670434 L23,83.7183666 L23,83.5826979 C23.0052207,99.1446248 28.943247,113.316814 38.6734656,123.972047 L41.720794,120.926452 C45.5060244,117.143375 46.1864959,111.335699 43.374113,106.806443 C39.0633009,99.8647138 36.7869414,91.8289362 36.7869414,83.5670434 L36.7869414,83.3044026 C36.8582951,70.848947 47.0566639,60.7137794 59.5209504,60.7137794 C62.1854044,60.7137794 64.834196,61.195578 67.3924897,62.1470003 C70.6991285,63.3767174 74.044054,65.0517075 77.3332888,67.1250077 L81.0053979,69.4400771 L84.6775071,67.1250077 C87.9684821,65.0517075 91.313408,63.3767174 94.6200464,62.1470003 C97.1783401,61.195578 99.8271316,60.7137794 102.491586,60.7137794 C114.954132,60.7137794 125.152501,70.8472077 125.223854,83.3096207 L125.225595,83.5653042 C125.225595,91.8289362 122.947495,99.8647138 118.638423,106.804703 C115.8243,111.33396 116.504771,117.141635 120.291743,120.926452 L124.367609,125 C134.666917,114.236928 140.99652,99.6472957 141,83.579219 L141,83.7166274 C141,83.6661865 141,83.6157456 141,83.5653042 C141,83.5148633 141,83.4644224 141,83.413981 L141,83.5513894 Z" id="Path" fill="#FFCABD"></path>
                <path d="M146.896376,21.2161104 C145.318097,19.6772332 142.887165,19.4883705 141.05483,20.7124779 C110.99967,40.8035697 92.0411835,24.717056 84.596998,15.7023828 C82.7229008,13.4325391 79.2774848,13.4325391 77.4033877,15.7023828 C69.9592021,24.717056 50.9989759,40.8035697 20.9438154,20.7124779 C19.1132209,19.4883705 16.6822889,19.6772332 15.10401,21.2161104 C9.75665515,26.4308057 -0.845828092,39.7700736 1.27710473,62.0925374 C1.55726215,65.0408866 4.266612,67.1341093 7.17259359,66.6444665 C10.6145292,66.0638901 13.5727142,69.0629521 13.0158794,72.525426 C12.4364233,76.1155566 12.1371241,79.7756361 12.1249437,83.4776851 C12.1232032,83.5056647 12.1232032,83.5336442 12.1232032,83.5633729 L12.1232032,83.8659021 C12.1232032,83.8938816 12.1232032,83.9236098 12.1249437,83.9515894 C12.1701863,97.6650845 16.1689567,110.784013 23.5766,121.968853 C25.1740202,124.380343 28.5846336,124.693365 30.6223007,122.645609 L36.8518905,116.385177 C38.3483841,114.881274 38.6389824,112.534486 37.5235728,110.726305 C32.5590418,102.68742 29.9018959,93.3981976 29.9018959,83.7137629 C29.9018959,83.6140858 29.9018959,83.51266 29.9036359,83.4112338 C30.0202233,62.8304992 50.5935306,48.5206893 69.7869312,55.6957046 C73.3332729,57.0212373 77.0849481,58.8521516 81.0001928,61.3335913 C84.9136975,58.8521516 88.6671127,57.0212373 92.2117144,55.6957046 C111.405115,48.5206893 131.978422,62.8304992 132.09675,83.4112338 L132.09675,83.7137629 C132.09675,93.3981976 129.439603,102.68742 124.475073,110.726305 C123.359663,112.534486 123.650261,114.881274 125.148495,116.385177 L131.378085,122.645609 C133.415752,124.693365 136.826365,124.380343 138.422046,121.968853 C145.829689,110.785762 149.830199,97.6650845 149.875442,83.9515894 C149.875442,83.9236098 149.875442,83.8956303 149.875442,83.8659021 L149.875442,83.5633729 C149.875442,83.5353933 149.875442,83.5056647 149.875442,83.4776851 C149.863262,79.7756361 149.562222,76.1155566 148.984506,72.525426 C148.425931,69.0629521 151.384116,66.0638901 154.826052,66.6444665 C157.732034,67.1341093 160.443123,65.0408866 160.723281,62.0925374 C162.844473,39.7700736 152.24373,26.4308057 146.896376,21.2161104 L146.896376,21.2161104 Z" id="Path" fill="#84A3E3"></path>
                <path d="M87,38.9991302 C87,34.5810769 84.3133333,31 81,31 C77.6866667,31 75,34.5810769 75,38.9991302 C75,43.4171832 77.6866667,47 81,47 C84.3133333,47 87,43.4171832 87,38.9991302 Z" id="Path" fill="#FD5F7E"></path>
            </g>
        </g>
    </g>
</svg>