<?xml version="1.0" encoding="UTF-8"?>
<svg width="181px" height="222px" viewBox="0 0 181 222" version="1.1" xmlns="http://www.w3.org/2000/svg" xmlns:xlink="http://www.w3.org/1999/xlink">
    <!-- Generator: Sketch 54.1 (76490) - https://sketchapp.com -->
    <title>player3</title>
    <desc>Created with Sketch.</desc>
    <g id="Page-1" stroke="none" stroke-width="1" fill="none" fill-rule="evenodd">
        <g id="select-player" transform="translate(-885.000000, -301.000000)">
            <g id="player3" transform="translate(885.000000, 301.000000)">
                <path d="M59.7970309,22.253793 C34.7878413,24.4590395 20.0237551,43.1879557 21.8776968,64.5244972 C22.0074037,66.0155641 22.2270405,67.4770189 22.531419,68.9071193 C23.1125052,71.6384196 22.2529816,74.4585569 20.3800161,76.5192251 C14.8735324,82.5758141 11.8608773,90.226242 12.5595643,98.2685973 C13.3966052,107.885631 10.1072424,117.265766 2.5859803,120.998659 C-0.537357876,122.548951 -0.898807668,126.922863 1.8699993,129.049725 C19.7072705,142.749773 81.6794237,150.415878 96.9727132,109.435923 C96.9727132,109.435923 107.534301,93.0150249 104.428257,57.2485781 C102.574315,35.9137784 88.071372,19.7628752 59.7970309,22.253793 Z" id="Path" fill="#7F9AE6" fill-rule="nonzero"></path>
                <path d="M55.2344193,118 C26.3689989,124.10783 26.7165029,163.522089 3.90633973,176.52294 C1.40604827,177.947405 1.36434779,181.524203 3.78645051,183.077217 C18.2634675,192.360562 52.8470665,199.154566 71.5097692,192.042663 C92.9316541,183.878045 97.4804814,128.25615 98,121.807839 L55.2344193,118 Z" id="Path" fill="#E88C98" fill-rule="nonzero"></path>
                <path d="M86.4269906,155.034776 C86.5603845,151.974678 69.7302235,140.201872 69.7302235,139.800093 C69.7302235,139.400047 42.9578814,139 42.9578814,139 C31.8376751,169.744722 14.2227419,181.747858 8,185.29113 C24.0246001,193.366533 54.5458325,198.572337 71.6566403,192.052094 C78.8512529,189.310647 84.1333074,181.200608 88,171.407254 C87.3087766,165.129464 86.3386387,157.07311 86.4269906,155.034776 Z" id="Path" fill="#DB818D" fill-rule="nonzero"></path>
                <path d="M56.8341055,157.050213 C44.7776773,156.22425 34.73933,165.696087 34.73933,177.499241 C34.73933,181.59284 31.5117888,183.856908 27.7602057,184.927727 C24.4806076,185.865772 24.0068879,190.257683 26.9689375,191.944094 C36.9708453,197.637887 47.2920359,198 55.3695653,198 C67.2472644,198 76.7806575,188.026378 75.9494787,176.045617 C75.2484429,165.937496 67.0060663,157.746848 56.8341055,157.050213 L56.8341055,157.050213 Z" id="Path" fill="#7F9AE6" fill-rule="nonzero"></path>
                <path d="M64.8393622,222 C62.7082179,222 60.5701147,221.232666 58.8738975,219.677072 C55.2709589,216.372305 55.0221803,210.767282 58.3171904,207.155582 C62.9865714,202.037117 66.742605,192.286748 69.4774287,178.174785 C70.4081736,173.37023 75.0479796,170.231137 79.8426193,171.164145 C84.6355199,172.098897 87.7669974,176.749985 86.8362531,181.556284 C83.4229423,199.163104 78.3621266,211.450906 71.3650137,219.117267 C69.6218247,221.030369 67.2349429,222 64.8393622,222 Z" id="Path" fill="#F9F1DA" fill-rule="nonzero"></path>
                <path d="M106.838858,214 C104.656061,214 102.471525,213.195312 100.761812,211.570225 C97.2171591,208.201356 97.0641024,202.587739 100.420913,199.028607 C102.995048,196.302092 104.41604,192.996063 104.316901,189.962335 C104.266462,188.401833 103.796856,187.061268 103.057662,186.375275 C99.4782231,183.043062 99.2677703,177.43119 102.588057,173.838893 C105.906603,170.246597 111.500129,170.035388 115.079568,173.365855 C119.326891,177.319476 121.779276,183.008152 121.98625,189.386311 C122.236707,197.122491 119.055563,205.083843 113.258541,211.228102 C111.521001,213.069634 109.181668,214 106.838858,214 L106.838858,214 Z" id="Path" fill="#F9F1DA" fill-rule="nonzero"></path>
                <path d="M113.345422,211.099388 C115.161075,209.097454 116.719598,206.912861 118,204.607714 L101.524439,197 C101.188596,197.456646 100.826515,197.902332 100.434698,198.333405 C97.0587735,202.055979 97.2127016,207.932094 100.777538,211.457398 C102.496985,213.157946 104.69396,214 106.889185,214 C109.245336,214 111.597988,213.026432 113.345422,211.099388 L113.345422,211.099388 Z" id="Path" fill="#495059" fill-rule="nonzero"></path>
                <path d="M106.774005,48.4623966 C102.469364,57.6501458 106.574487,62.2589557 112.921977,65.2038147 C119.271233,68.1504307 125.456284,68.317353 129.76269,59.1313608 C134.06733,49.9436116 134.577601,35.4846351 128.228346,32.5380187 C121.880855,29.5931596 111.078645,39.2764044 106.774005,48.4623966 L106.774005,48.4623966 Z" id="Path" fill="#F0E4C0" fill-rule="nonzero"></path>
                <path d="M124.953922,157 C121.642958,157 118.460489,155.189801 116.90974,152.075017 C114.741155,147.722948 116.58234,142.471819 121.021602,140.347553 C127.662892,137.167194 144.351489,127.096346 153.967543,118.342164 C157.588304,115.047913 163.247395,115.253264 166.609405,118.80291 C169.971416,122.352556 169.76195,127.900496 166.141188,131.196472 C154.562495,141.736695 136.155929,152.622046 128.87392,156.107843 C127.610086,156.711818 126.270562,157 124.953922,157 Z" id="Path" fill="#F5EBCD" fill-rule="nonzero"></path>
                <path d="M159.73904,136 C161.668556,134.431307 163.510211,132.843548 165.201983,131.264455 C168.745747,127.953734 168.950758,122.380975 165.660243,118.815449 C162.369729,115.249923 156.830983,115.043654 153.28722,118.352642 C151.697091,119.838133 149.905398,121.361758 148,122.88365 L159.73904,136 Z" id="Path" fill="#495059" fill-rule="nonzero"></path>
                <path d="M133,151.50087 C133,173.316602 119.043899,191 88,191 C56.9561011,191 43,173.316602 43,151.50087 C43,129.685138 63.1486345,112 88,112 C112.853094,112 133,129.685138 133,151.50087 L133,151.50087 Z" id="Path" fill="#F9F1DA" fill-rule="nonzero"></path>
                <path d="M88.0135001,191 C97.124425,191 104.752015,189.468067 111,186.761477 C50.4235881,183.103311 62.9783388,125.510291 84.8687614,112 C61.4759868,113.41865 43,130.538309 43,151.452073 C43,173.294756 56.9602879,191 88.0135001,191 L88.0135001,191 Z" id="Path" fill="#F0E4C0" fill-rule="nonzero"></path>
                <path d="M98.4872281,173.42089 L84.8547198,160.702539 C82.8368425,158.820342 82.4143325,155.790336 83.8396448,153.433664 L87.8385844,146.825913 C88.9009941,145.0728 90.8066702,144 92.8648707,144 L112.135515,144 C114.191962,144 116.099391,145.0728 117.160048,146.825913 L121.158987,153.433664 C122.586053,155.790336 122.163543,158.820342 120.145665,160.702539 L106.511404,173.42089 C104.255098,175.52637 100.743535,175.52637 98.4872281,173.42089 L98.4872281,173.42089 Z" id="Path" fill="#8A82D1" fill-rule="nonzero"></path>
                <path d="M114,167.297319 C98.1088459,165.830224 92.9680016,153.720154 97.8203288,144 L93.8387975,144 C91.7877056,144 89.8852435,145.072846 88.8273488,146.826032 L84.8388226,153.434062 C83.4154735,155.790833 83.8368827,158.820967 85.8495059,160.703244 L99.4482629,173.422132 C101.698694,175.525956 105.201113,175.525956 107.451544,173.422132 L114,167.297319 Z" id="Path" fill="#7A73B8" fill-rule="nonzero"></path>
                <path d="M103.500309,170 C103.332713,170 103.186512,169.94403 103.065272,169.835481 L89.1993647,157.469471 C88.9818465,157.276119 88.9372732,156.958955 89.0906056,156.716418 L93.1557038,150.291723 C93.2698118,150.11194 93.4784154,150 93.701283,150 L113.299335,150 C113.520419,150 113.729023,150.11194 113.843131,150.291723 L117.910012,156.716418 C118.063345,156.958955 118.016988,157.276119 117.79947,157.469471 L103.935345,169.835481 C103.812323,169.94403 103.666122,170 103.500309,170 Z" id="Path" fill="#F8E47C" fill-rule="nonzero"></path>
                <path d="M95.7878637,150 L93.4848856,150 C93.2722765,150 93.0732748,150.11194 92.9644191,150.291723 L89.0864351,156.716418 C88.9401605,156.958955 88.9826821,157.276119 89.1901881,157.469471 L102.417855,169.835481 C102.533515,169.94403 102.672986,170 102.832868,170 C102.991049,170 103.13052,169.94403 103.24788,169.835481 L107,166.328019 C98.5500769,163.48711 94.8898042,156.718114 95.7878637,150 L95.7878637,150 Z" id="Path" fill="#F5D56E" fill-rule="nonzero"></path>
                <path d="M97.4837838,120.796357 C85.050403,121.87347 69.4999899,137.075218 54.5472681,120.729253 C49.5190113,125.230415 45.559303,130.626304 43,136.565912 C53.8262153,144.704482 67.6130903,149.045626 82.1853046,147.784406 C86.4820836,147.41103 91.1645824,147.125406 96.1233397,146.820854 C101.65199,146.483611 107.370024,146.132603 113.230532,145.625018 L113.235744,145.625018 C119.890279,145.048607 126.744623,144.276046 133.498194,143.071606 C136.92276,142.460783 138.900008,138.864671 137.595163,135.669465 C136.015797,131.798052 133.831789,128.20194 131.1526,124.958556 C121.563469,119.691714 115.727286,119.2151 97.4837838,120.796357 L97.4837838,120.796357 Z" id="Path" fill="#E88C98" fill-rule="nonzero"></path>
                <path d="M168.306427,63.216961 C149.685999,47.508623 114.381724,40.4160602 75.373216,43.8476632 C49.8354348,46.0939621 30.9450697,68.7267844 33.179451,94.4007772 C35.4138328,120.07477 57.9265783,139.065891 83.4643595,136.819592 C111.680612,134.338683 154.280153,135.594019 172.686373,113.542469 C185.300268,98.4294094 183.339306,75.8963836 168.306427,63.216961 L168.306427,63.216961 Z" id="Path" fill="#F9F1DA" fill-rule="nonzero"></path>
                <path d="M51.748611,54 C39.8559431,63.3629508 32.7634116,78.3743357 34.1787915,94.6087929 C36.4069302,120.157417 58.8567724,139.055803 84.323198,136.820473 C103.292768,135.154864 128.780033,135.179256 149,128.649234 C47.8932192,144.751279 41.108077,83.6812852 51.748611,54 Z" id="Path" fill="#F5EBCD" fill-rule="nonzero"></path>
                <path d="M86.9822458,76.8064679 C86.6033825,72.4384979 80.2613875,69.4315101 72.8145219,70.0906245 C65.3694184,70.7497389 59.6388908,74.8255612 60.0177542,79.1935321 C60.3948555,83.5615021 66.7386125,86.5684899 74.1854781,85.9093755 C81.6305816,85.2502611 87.3611092,81.1744388 86.9822458,76.8064679 Z" id="Path" fill="#E88C98" fill-rule="nonzero"></path>
                <path d="M132.017754,73.1935321 C132.394855,77.5615025 138.738612,80.5684903 146.183716,79.9093754 C153.630582,79.250261 159.361109,75.1744387 158.982246,70.8064683 C158.603383,66.4384979 152.261388,63.4315101 144.814522,64.0906245 C137.369418,64.7497393 131.638891,68.8255616 132.017754,73.1935321 L132.017754,73.1935321 Z" id="Path" fill="#E88C98" fill-rule="nonzero"></path>
                <path d="M110.783098,60.7285718 C101.904628,63.8307469 92.0712611,61.140318 85.9023536,53.9224376 C83.8581163,51.5311406 83.4203119,48.1210349 84.7888819,45.2722423 L104.453891,4.3773706 C106.067219,1.02181262 109.781663,-0.699076753 113.318572,0.266944178 C116.855482,1.23472415 119.228934,4.62195471 118.982454,8.35230746 L115.98332,53.8063038 C115.774759,56.9718249 113.725351,59.7009652 110.783098,60.7285718 L110.783098,60.7285718 Z" id="Path" fill="#F8E47C" fill-rule="nonzero"></path>
                <path d="M113.294495,1.25726835 C109.743534,0.326262424 106.016063,1.98477535 104.394596,5.21870566 L96,21.9801977 C101.74868,22.1616506 109.23304,21.1441582 118.440966,16.9266522 L118.982608,9.04956445 C119.228337,5.45442442 116.847186,2.18996956 113.294495,1.25726835 Z" id="Path" fill="#E88C98" fill-rule="nonzero"></path>
                <path d="M116.006352,52.8909338 L117,38 C102.22293,46.4093465 91.3410999,46.4946763 84.428688,45.324438 C83.5264694,47.9435427 84.0629702,50.8813285 85.900185,53.0058682 C92.0759855,60.1491974 101.91759,62.8118377 110.801773,59.741704 C113.746492,58.7247112 115.797617,56.0237593 116.006352,52.8909338 L116.006352,52.8909338 Z" id="Path" fill="#72CDA2" fill-rule="nonzero"></path>
                <path d="M59.9179117,52.7879589 C65.7471011,60.9145913 62.5162964,66.0509122 56.7910421,69.9629075 C51.0675498,73.8749024 45.0181581,75.083752 39.1889688,66.9571195 C33.358018,58.8304866 30.3403683,44.9811641 36.0638611,41.0674493 C41.7891149,37.155454 54.0887224,44.661326 59.9179117,52.7879589 Z" id="Path" fill="#F0E4C0" fill-rule="nonzero"></path>
                <path d="M52.8926401,177 C52.0108745,177 51.1129792,176.873975 50.2258369,176.609673 C42.4512454,174.286966 36.8075869,169.123451 34.3325499,162.069563 C31.3807862,153.652158 33.3844728,143.703201 39.8310393,134.771194 C42.7290371,130.755904 48.4103318,129.794965 52.5234458,132.625272 C56.6347672,135.455579 57.6186889,141.00592 54.7206907,145.02121 C51.1918363,149.909921 50.7778365,154.054737 51.5664073,156.303929 C51.9194719,157.310377 52.7170041,158.74916 55.554067,159.594577 C60.3643488,161.031609 63.0705808,166.006088 61.5991794,170.704011 C60.4001933,174.535515 56.7924814,177 52.8926401,177 Z" id="Path" fill="#F9F1DA" fill-rule="nonzero"></path>
                <path d="M75,213.393902 L59.9206628,205 C59.3739695,205.807039 58.8105067,206.539288 58.2336282,207.195007 C55.0574424,210.797115 55.2972495,216.388991 58.7702594,219.683241 C60.4053077,221.234704 62.4663069,222 64.5205982,222 C66.8297897,222 69.1305961,221.032945 70.8109223,219.126663 C72.2967202,217.441273 73.6919614,215.533251 75,213.393902 Z" id="Path" fill="#495059" fill-rule="nonzero"></path>
                <path d="M61.6161545,170.877447 C63.0252407,166.308936 60.43362,161.473191 55.8270578,160.075745 C54.8436147,159.77617 54.1176176,159.403404 53.573549,159 L44,173.466383 C45.99263,174.799149 48.2427059,175.866383 50.7244827,176.620425 C51.5740538,176.877447 52.4339225,177 53.2800608,177 C57.0130242,177 60.4679465,174.603404 61.6161545,170.877447 L61.6161545,170.877447 Z" id="Path" fill="#495059" fill-rule="nonzero"></path>
                <path d="M143.412939,113.720914 C147.243192,113.386929 150.738865,111.412591 153.005998,108.307575 C154.093386,106.81508 153.765776,104.727675 152.27236,103.640484 C150.778945,102.555034 148.686072,102.88206 147.596942,104.372816 C146.469474,105.919235 144.732093,106.900316 142.829165,107.065569 C140.922752,107.232561 139.045962,106.566331 137.665816,105.240829 C136.336206,103.960553 134.217194,104.000562 132.936377,105.327804 C131.653817,106.656785 131.693897,108.772023 133.02525,110.050559 C135.51718,112.449336 138.828136,113.771359 142.254104,113.771359 C142.639221,113.771359 143.02608,113.753964 143.412939,113.720914 Z" id="Path" fill="#3D4851"></path>
                <g id="Group-2" transform="translate(76.923543, 56.707268)" fill="#3D4851">
                    <path d="M63.8186884,7.74863412 L63.4056903,3.04849246 C63.2453703,1.2115756 61.6212592,-0.148716775 59.7810647,0.0130570414 C57.9408702,0.174830858 56.5781502,1.79430975 56.7402131,3.63122661 L57.1532112,8.33136783 C57.3048178,10.0708724 58.7651239,11.3807197 60.4815931,11.3807197 C60.5791792,11.3807197 60.6785077,11.3755011 60.7778367,11.3685431 C62.6180313,11.2067693 63.9790083,9.58729037 63.8186884,7.74863412 Z" id="Path"></path>
                    <path d="M3.05393239,4.96716615 C1.21373788,5.12893996 -0.148982138,6.74841886 0.0130803356,8.58533572 L0.424335927,13.2854769 C0.575942972,15.0249815 2.03799156,16.3348288 3.75271826,16.3348288 C3.85204683,16.3348288 3.94963291,16.3296102 4.04896147,16.3226522 C5.88915598,16.1608784 7.251876,14.5413995 7.08981308,12.7044826 L6.67855794,8.00434141 C6.51823752,6.16568471 4.8958694,4.81235035 3.05393239,4.96716615 Z" id="Path"></path>
                </g>
            </g>
        </g>
    </g>
</svg>