<?xml version="1.0" encoding="UTF-8"?>
<svg width="186px" height="222px" viewBox="0 0 186 222" version="1.1" xmlns="http://www.w3.org/2000/svg" xmlns:xlink="http://www.w3.org/1999/xlink">
    <!-- Generator: Sketch 54.1 (76490) - https://sketchapp.com -->
    <title>player1</title>
    <desc>Created with Sketch.</desc>
    <g id="Page-1" stroke="none" stroke-width="1" fill="none" fill-rule="evenodd">
        <g id="select-player" transform="translate(-627.000000, -270.000000)" fill-rule="nonzero">
            <g id="player1" transform="translate(627.000000, 270.000000)">
                <path d="M24.7259201,99.4482253 L12.7539662,80.9669553 C10.6731765,77.756924 5.67962974,78.6507919 4.88429014,82.3789574 L0.309343182,103.824917 C-0.437159773,107.324897 0.178531083,110.972426 2.03606753,114.046919 L10.1255082,127.442923 L18.32832,133 L24.0125564,124.953476 L26.777059,109.611894 C27.4119354,106.091326 26.6793858,102.464385 24.7259201,99.4482253 L24.7259201,99.4482253 Z" id="Path" fill="#A5B0BC"></path>
                <path d="M43.8325973,211.766585 L24.4665745,126 L11,128.436846 L30.5554551,214.727412 C31.2810466,217.926718 34.2155489,220.146918 37.5136923,219.992412 C41.7370074,219.794239 44.757769,215.861024 43.8325973,211.766585 L43.8325973,211.766585 Z" id="Path" fill="#E3986D"></path>
                <path d="M61.213362,172.3381 C57.1928536,173.62841 52.8387365,174.568203 48.1510095,175 L38,163.211101 L44.5088209,151.159737 C49.0039488,150.902352 53.3408697,149.849107 57.4903509,148 L65,155.967075 L61.213362,172.3381 Z" id="Path" fill="#FD5F7E"></path>
                <path d="M166,171.194122 L152.511764,181 L138.538921,178.046056 L136,165.147503 L146.849233,154 L161.46822,158.792969 C163.190682,162.570838 164.741075,166.636318 165.917476,170.879441 C165.945569,170.984335 165.977174,171.089229 166,171.194122 L166,171.194122 Z" id="Path" fill="#FD5F7E"></path>
                <path d="M160,158.538412 L135.478981,165 L130,135.592549 L144.558774,133 C144.558774,133 153.538826,143.576636 160,158.538412 L160,158.538412 Z" id="Path" fill="#FFBD86"></path>
                <path d="M149.239625,190.975156 L141.420799,190.975156 L139,177.987337 L165.532096,171 C168.075038,181.491356 159.915231,191.566922 149.239625,190.975156 Z" id="Path" fill="#FFBD86"></path>
                <path d="M72.1938179,176 C71.5657586,182.404357 71.139756,189.704748 71.0016837,197.996028 L71,198.133228 L82.7159178,205 L94.5480185,198.133228 L94.5480185,194.359383 C94.5480185,191.883009 96.5399604,189.875825 99,189.875825 L72.1938179,176 Z" id="Path" fill="#FED2A4"></path>
                <path d="M121,189.875825 C123.461427,189.875825 125.456497,191.883009 125.456497,194.359383 L125.456497,198.133228 L137.361253,205 L149,198.133228 L149,197.924888 C148.861945,189.662403 148.434309,182.387419 147.80801,176 L147.802959,176 L121,189.875825 Z" id="Path" fill="#FED2A4"></path>
                <path d="M49,173.738654 C47.1553645,173.90895 45.2582186,174 43.3085623,174 C42.3769279,174 41.4368247,173.97808 40.4848638,173.934242 C33.8516286,173.642546 28.7157837,168.04974 29.0122128,161.448644 C29.305254,154.84249 34.9323245,149.733596 41.5553961,150.025292 C42.8546024,150.082619 44.1402576,150.074189 45.4123614,150 L49,173.738654 Z" id="Path" fill="#FFBD86"></path>
                <path d="M96.1561736,145.68476 C95.5242335,146.702816 83.5345923,165.566989 60.7279293,173 L57,148.241096 C60.216523,146.792391 63.3228439,144.863081 66.3051874,142.453166 C72.2147735,137.681569 75.3658638,132.823842 75.3968583,132.773887 C78.9612064,127.039358 86.4945512,125.278862 92.2267807,128.84464 C97.9607325,132.410418 99.7205216,139.950231 96.1561736,145.68476 L96.1561736,145.68476 Z" id="Path" fill="#FFBD86"></path>
                <path d="M144.978524,133 L130,135.695009 L133.560269,155 C140.567756,152.456999 147.105641,148.880344 153,144.450658 C148.634453,137.352788 144.978524,133 144.978524,133 L144.978524,133 Z" id="Path" fill="#F3AC75"></path>
                <path d="M92.2030768,129.787742 C86.4473117,126.331951 78.8830361,128.038144 75.3040535,133.59579 C75.2729316,133.644204 72.1089035,138.352093 66.1750536,142.976509 C65.4575279,143.53578 64.7330864,144.06667 64,144.572517 C71.0749749,149.652697 79.1008875,153.559243 87.7682503,156 C93.0381729,150.848033 95.851219,146.572535 96.1486031,146.108424 C99.7275858,140.550778 97.9605713,133.243533 92.2030768,129.787742 L92.2030768,129.787742 Z" id="Path" fill="#F3AC75"></path>
                <path d="M147.394105,162.561599 C143.482266,138.759926 136.927109,132 136.927109,132 L85.0728902,132 C85.0728902,132 78.5160476,138.759926 74.6058951,162.561599 C73.9918764,166.285763 73.4453323,170.433165 73,175.037803 L110.998313,182 L149,175.037803 C148.554668,170.433165 148.00981,166.285763 147.394105,162.561599 L147.394105,162.561599 Z" id="Path" fill="#FED2A4"></path>
                <path d="M180.98296,73.8079497 C180.272392,34.5802328 148.318968,3 109.000852,3 C69.6810324,3 37.7293124,34.5802328 37.0170402,73.8079497 C37.006816,74.2501687 37,74.694095 37,75.1431436 C37,99.927889 49.4732862,121.792966 68.471192,134.781225 C73.0719939,137.926272 79.3103413,134.619021 79.3103413,129.037502 L79.3103413,106.404091 C79.3103413,104.505452 78.5452451,102.678525 77.1650042,101.379187 C72.8658099,97.3309204 63.6062695,85.9715298 63.6062695,63.2356745 L94.1555968,66.8963589 L98.4769429,86.3437452 C99.1040152,89.1712141 101.607192,91.1825414 104.497178,91.1825414 L113.502822,91.1825414 C116.394512,91.1825414 118.895985,89.1712141 119.524761,86.3437452 L123.846108,66.8963589 L154.393731,63.2356745 C154.393731,85.9715298 145.135894,97.3309204 140.8367,101.379187 C139.456459,102.678525 138.691363,104.505452 138.691363,106.404091 L138.691363,129.037502 C138.691363,134.619021 144.928006,137.926272 149.528808,134.781225 C168.528418,121.792966 181,99.927889 181,75.1431436 C181,74.694095 180.993184,74.2501687 180.98296,73.8079497 L180.98296,73.8079497 Z" id="Path" fill="#8597A5"></path>
                <path d="M69.8100111,198 C69.7788761,199.869996 69.7615792,201.782804 69.7615792,203.753835 C69.7615792,203.753835 64.4375328,208.103461 62.2148561,215.516661 C61.2462187,218.749768 63.6730014,222 67.0787995,222 L88.9215726,222 C91.7254317,222 94,219.748127 94,216.972244 L94,198 L69.8100111,198 Z" id="Path" fill="#FF889E"></path>
                <path d="M78.8237022,207.141063 C80.8300551,204.529576 81.9452657,201.349554 81.9982897,198.056511 L82,198 L70.7230309,198 C70.6922426,199.869996 70.6751384,201.784517 70.6751384,203.753835 C70.6751384,203.753835 65.410386,208.103461 63.2124632,215.516661 C62.2546136,218.749768 64.6543692,222 68.0222368,222 L79.299206,222 C75.9313383,222 73.5315827,218.749768 74.4894323,215.516661 C75.5379355,211.980449 77.284301,209.142918 78.8237022,207.141063 L78.8237022,207.141063 Z" id="Path" fill="#FD5F7E"></path>
                <path d="M149.19087,198 C149.220276,199.869996 149.239304,201.782804 149.239304,203.753835 C149.239304,203.753835 154.561814,208.103461 156.784572,215.516661 C157.754974,218.749768 155.326374,222 151.920451,222 L130.078612,222 C127.272921,222 125,219.748127 125,216.972244 L125,198 L149.19087,198 Z" id="Path" fill="#FF889E"></path>
                <path d="M136.762644,216.972244 L136.762644,198 L125,198 L125,216.972244 C125,219.748127 127.34575,222 130.239139,222 L142,222 C139.106611,222 136.762644,219.748127 136.762644,216.972244 L136.762644,216.972244 Z" id="Path" fill="#FD5F7E"></path>
                <path d="M135.422318,133 L83.577682,133 C83.577682,133 79.6041634,137.210272 76,150.609131 C86.0467954,155.969721 97.4360873,159 109.496627,159 C121.56054,159 132.951518,155.969721 143,150.607385 C139.395836,137.210272 135.422318,133 135.422318,133 L135.422318,133 Z" id="Path" fill="#FFBD86"></path>
                <path d="M170,84.9991567 C170,118.137902 142.914052,145 109.49915,145 C76.0859487,145 49,118.137902 49,84.9991567 C49,51.8620975 76.0859487,25 109.49915,25 C142.914052,25 170,51.8620975 170,84.9991567 Z" id="Path" fill="#FED2A4"></path>
                <g id="Group" transform="translate(76.000000, 78.000000)" fill="#3D4851">
                    <path d="M62.5517579,12.8339042 C60.6995786,12.8339042 59.1984994,11.3167807 59.1984994,9.4469177 L59.1984994,3.64041118 C59.1984994,1.76883551 60.6995786,0.253424658 62.5517579,0.253424658 C64.4056332,0.253424658 65.9067125,1.76883551 65.9067125,3.64041118 L65.9067125,9.4469177 C65.9067125,11.3167807 64.4056332,12.8339042 62.5517579,12.8339042 Z" id="Path"></path>
                    <path d="M3.38378917,12.8339042 C1.53160989,12.8339042 0.0288341842,11.3167807 0.0288341842,9.4469177 L0.0288341842,3.64041118 C0.0288341842,1.76883551 1.53160989,0.253424658 3.38378917,0.253424658 C5.23596845,0.253424658 6.73874372,1.76883551 6.73874372,3.64041118 L6.73874372,9.4469177 C6.73874372,11.3167807 5.23766447,12.8339042 3.38378917,12.8339042 Z" id="Path"></path>
                    <path d="M32.9677733,31.6472601 C29.9384767,31.6472601 27.0889701,30.3647259 25.1519839,28.1267121 C23.9307668,26.7174659 24.0732421,24.5787669 25.4691612,23.3476028 C26.8633843,22.1164384 28.9835526,22.260274 30.2030737,23.6678084 C30.8662626,24.4349317 31.8737664,24.8732879 32.9677733,24.8732879 C34.0617802,24.8732879 35.0692845,24.4349317 35.7324734,23.6678084 C36.9536905,22.260274 39.0721628,22.1164384 40.4680819,23.3476028 C41.8623046,24.5787669 42.0047799,26.7174659 40.7852593,28.1267121 C38.848273,30.3647259 35.9987664,31.6472601 32.9677733,31.6472601 Z" id="Path"></path>
                </g>
                <polygon id="Path" fill="#FFBD86" points="50.3998297 71.7080283 105 78 101.036093 58.7637449 49 49"></polygon>
                <polygon id="Path" fill="#FFBD86" points="168.598506 71.7080283 114 78 117.963786 58.7637449 170 49"></polygon>
                <path d="M185.98295,74.5344395 C185.829494,66.1409367 184.303467,58.077487 181.619705,50.5607407 C179.873725,45.670878 175.667346,42.0555278 170.553877,40.9858174 C158.2246,38.4097109 133.574572,30.3327206 119.506135,5.79539288 C117.466885,2.23589767 113.697001,0.0016925797 109.572465,0 L109.42242,0 C105.297884,0.0016925797 101.529705,2.23759014 99.4904551,5.79539288 C85.4203136,30.3344131 60.7702853,38.4164813 48.4410083,40.9959727 C43.3275383,42.0656831 39.1228646,45.6810333 37.3785898,50.5708964 C34.6965332,58.0859502 33.1705058,66.144322 33.0170508,74.5344395 C33.0068202,74.999899 33,75.4687435 33,75.9409733 C33,102.030397 46.2517134,125.046095 66.4378992,138.717062 C71.3263012,142.027747 77.9538631,138.546111 77.9538631,132.671167 L77.9538631,108.846415 C77.9538631,106.847479 77.1405503,104.926401 75.6742002,103.557104 C71.1063488,99.2951878 61.2681623,87.3388048 61.2681623,63.4074208 L93.7273579,67.2580393 L98.3173749,87.7314833 C98.9857578,90.7070386 101.643944,92.8244555 104.716459,92.8244555 L114.283541,92.8244555 C117.356057,92.8244555 120.014242,90.7070386 120.682625,87.7314833 L125.272642,67.2580393 L157.731838,63.4074208 C157.731838,87.3388048 147.893651,99.2951878 143.3258,103.557104 C141.85945,104.926401 141.046137,106.847479 141.046137,108.846415 L141.046137,132.671167 C141.046137,138.544419 147.673699,142.027747 152.562101,138.717062 C172.748287,125.046095 186,102.030397 186,75.9409733 C186,75.467051 185.99318,74.999899 185.98295,74.5344395 Z" id="Path" fill="#A5B0BC"></path>
                <path d="M150,175 C135.494573,190.097656 122.43484,191 122.43484,191 L99.5634281,191 C99.5634281,191 86.5036957,190.097656 72,175 L150,175 Z" id="Path" fill="#FF889E"></path>
            </g>
        </g>
    </g>
</svg>