<?xml version="1.0" encoding="UTF-8"?>
<svg width="60px" height="48px" viewBox="0 0 60 48" version="1.1" xmlns="http://www.w3.org/2000/svg" xmlns:xlink="http://www.w3.org/1999/xlink">
    <!-- Generator: Sketch 54.1 (76490) - https://sketchapp.com -->
    <title>sound_on</title>
    <desc>Created with Sketch.</desc>
    <g id="Page-1" stroke="none" stroke-width="1" fill="none" fill-rule="evenodd">
        <g id="select-player" transform="translate(-1362.000000, -754.000000)" fill="#000000" fill-rule="nonzero">
            <g id="sound_on" transform="translate(1362.000000, 754.000000)">
                <path d="M28.404,1.758 C27.429,1.206 26.273,1.224 25.314,1.802 C25.268,1.829 25.224,1.861 25.184,1.895 L11.634,13.358 L1,13.358 C0.447,13.358 0,13.805 0,14.358 L0,33.358 C0,33.624 0.105,33.878 0.293,34.065 C0.481,34.252 0.734,34.358 1,34.358 L11.61,34.353 L25.153,46.793 C25.203,46.839 25.257,46.879 25.314,46.913 C25.806,47.21 26.351,47.359 26.896,47.359 C27.413,47.358 27.929,47.225 28.404,46.957 C29.403,46.393 30,45.363 30,44.201 L30,4.514 C30,3.353 29.403,2.323 28.404,1.758 Z M28,44.201 C28,44.632 27.783,45.011 27.421,45.216 C27.266,45.303 26.873,45.471 26.421,45.242 L13,32.913 L13,28.357 C13,27.804 12.553,27.357 12,27.357 C11.447,27.357 11,27.804 11,28.357 L11,32.353 L2,32.357 L2,15.357 L11,15.357 L11,19.357 C11,19.91 11.447,20.357 12,20.357 C12.553,20.357 13,19.91 13,19.357 L13,14.821 L26.405,3.481 C26.866,3.239 27.266,3.411 27.421,3.499 C27.783,3.704 28,4.083 28,4.514 L28,44.201 Z" id="Shape"></path>
                <path d="M52.026,23.858 C52.026,15.511 46.71,8.098 38.797,5.411 C38.275,5.234 37.706,5.514 37.528,6.037 C37.351,6.559 37.631,7.128 38.154,7.306 C45.255,9.717 50.026,16.369 50.026,23.859 C50.026,31.342 45.264,37.995 38.177,40.413 C37.655,40.591 37.375,41.159 37.554,41.683 C37.696,42.098 38.084,42.36 38.5,42.36 C38.607,42.36 38.716,42.343 38.823,42.306 C46.721,39.611 52.026,32.198 52.026,23.858 Z" id="Path"></path>
                <path d="M44.453,0.374 C43.945,0.161 43.358,0.395 43.141,0.904 C42.926,1.413 43.163,2 43.672,2.216 C52.376,5.909 58,14.405 58,23.858 C58,33.635 52.106,42.238 42.985,45.772 C42.47,45.972 42.214,46.551 42.414,47.066 C42.567,47.462 42.946,47.705 43.347,47.705 C43.467,47.705 43.589,47.684 43.708,47.638 C53.605,43.801 60,34.467 60,23.858 C60,13.6 53.897,4.382 44.453,0.374 Z" id="Path"></path>
                <path d="M43.026,23.858 C43.026,17.886 39.017,12.556 33.277,10.896 C32.747,10.745 32.193,11.048 32.039,11.58 C31.886,12.11 32.191,12.665 32.723,12.818 C37.612,14.231 41.027,18.771 41.027,23.858 C41.027,28.945 37.612,33.485 32.723,34.898 C32.192,35.051 31.886,35.606 32.039,36.136 C32.166,36.574 32.565,36.859 33,36.859 C33.092,36.859 33.185,36.846 33.277,36.82 C39.018,35.159 43.026,29.829 43.026,23.858 Z" id="Path"></path>
            </g>
        </g>
    </g>
</svg>