<?xml version="1.0" encoding="UTF-8"?>
<svg width="54px" height="46px" viewBox="0 0 54 46" version="1.1" xmlns="http://www.w3.org/2000/svg" xmlns:xlink="http://www.w3.org/1999/xlink">
    <!-- Generator: Sketch 54.1 (76490) - https://sketchapp.com -->
    <title>sound_off</title>
    <desc>Created with Sketch.</desc>
    <g id="Page-1" stroke="none" stroke-width="1" fill="none" fill-rule="evenodd">
        <g id="select-player" transform="translate(-1362.000000, -755.000000)" fill="#000000" fill-rule="nonzero">
            <g id="sound_off" transform="translate(1362.000000, 754.000000)">
                <path d="M46.414,23 L53.707,15.707 C54.098,15.316 54.098,14.684 53.707,14.293 C53.316,13.902 52.684,13.902 52.293,14.293 L45,21.586 L37.707,14.293 C37.316,13.902 36.684,13.902 36.293,14.293 C35.902,14.684 35.902,15.316 36.293,15.707 L43.586,23 L36.293,30.293 C35.902,30.684 35.902,31.316 36.293,31.707 C36.488,31.902 36.744,32 37,32 C37.256,32 37.512,31.902 37.707,31.707 L45,24.414 L52.293,31.707 C52.488,31.902 52.744,32 53,32 C53.256,32 53.512,31.902 53.707,31.707 C54.098,31.316 54.098,30.684 53.707,30.293 L46.414,23 Z" id="Path"></path>
                <path d="M28.404,1.4 C27.429,0.848 26.273,0.866 25.314,1.444 C25.268,1.471 25.224,1.503 25.184,1.537 L11.634,13 L1,13 C0.447,13 0,13.447 0,14 L0,33 C0,33.266 0.105,33.52 0.293,33.707 C0.481,33.894 0.734,34 1,34 L11.61,33.995 L25.153,46.435 C25.203,46.481 25.257,46.521 25.314,46.555 C25.806,46.852 26.351,47.001 26.896,47.001 C27.413,47 27.929,46.867 28.404,46.599 C29.403,46.035 30,45.005 30,43.844 L30,4.156 C30,2.995 29.403,1.965 28.404,1.4 Z M28,43.844 C28,44.275 27.783,44.654 27.421,44.859 C27.266,44.946 26.873,45.114 26.421,44.885 L13,32.556 L13,28 C13,27.447 12.553,27 12,27 C11.447,27 11,27.447 11,28 L11,31.996 L2,32 L2,15 L11,15 L11,19 C11,19.553 11.447,20 12,20 C12.553,20 13,19.553 13,19 L13,14.464 L26.405,3.124 C26.865,2.882 27.265,3.054 27.421,3.142 C27.783,3.347 28,3.725 28,4.156 L28,43.844 Z" id="Shape"></path>
            </g>
        </g>
    </g>
</svg>